<?xml version="1.0" standalone="no"?>
<!DOCTYPE svg PUBLIC "-//W3C//DTD SVG 20010904//EN"
 "http://www.w3.org/TR/2001/REC-SVG-20010904/DTD/svg10.dtd">
<svg version="1.0" xmlns="http://www.w3.org/2000/svg"
 width="3543.000000pt" height="3543.000000pt" viewBox="0 0 3543.000000 3543.000000"
 preserveAspectRatio="xMidYMid meet">
<metadata>
Created by potrace 1.14, written by Peter Selinger 2001-2017
</metadata>
<g transform="translate(0.000000,3543.000000) scale(0.100000,-0.100000)"
fill="#000000" stroke="none">
<path d="M14735 34451 c-113 -32 -185 -82 -240 -164 -22 -33 -41 -63 -42 -66
-1 -3 -11 -37 -22 -76 -18 -64 -57 -207 -113 -420 -12 -44 -25 -85 -29 -90 -4
-6 -10 -24 -13 -40 -12 -64 -24 -112 -56 -225 -12 -41 -29 -102 -37 -135 -9
-33 -19 -64 -22 -70 -3 -5 -6 -17 -8 -24 -7 -46 -36 -159 -45 -176 -10 -18
-39 -125 -112 -415 -14 -52 -34 -126 -45 -163 -11 -38 -22 -83 -25 -100 -3
-18 -13 -57 -22 -87 -9 -30 -17 -59 -19 -65 -1 -5 -5 -17 -8 -25 -4 -8 -13
-42 -21 -75 -22 -90 -37 -148 -43 -165 -7 -18 -8 -23 -22 -85 -6 -27 -15 -61
-20 -75 -12 -32 -80 -280 -86 -311 -3 -13 -14 -53 -26 -89 -12 -36 -32 -108
-44 -161 -12 -52 -27 -104 -32 -115 -6 -10 -14 -37 -18 -59 -5 -22 -9 -44 -11
-50 -2 -5 -5 -19 -8 -31 -9 -41 -28 -109 -37 -129 -4 -11 -11 -36 -15 -55 -4
-19 -8 -37 -9 -40 -1 -3 -5 -23 -10 -45 -4 -22 -11 -44 -15 -50 -4 -5 -20 -59
-34 -120 -15 -60 -37 -146 -50 -190 -33 -112 -97 -355 -102 -385 -3 -14 -9
-34 -14 -45 -5 -11 -18 -58 -30 -105 -11 -47 -29 -110 -39 -140 -11 -30 -22
-72 -25 -92 -3 -20 -13 -56 -21 -80 -14 -39 -48 -162 -110 -402 -13 -50 -28
-99 -34 -110 -9 -20 -39 -135 -47 -186 -3 -14 -10 -38 -16 -54 -11 -27 -51
-174 -104 -381 -14 -55 -29 -113 -34 -130 -5 -16 -20 -73 -34 -125 -13 -52
-38 -144 -54 -205 -16 -60 -44 -168 -63 -240 -19 -71 -36 -132 -39 -135 -5 -5
-9 -21 -16 -60 -6 -32 -33 -129 -44 -155 -5 -11 -21 -69 -35 -130 -15 -60 -30
-114 -33 -120 -4 -5 -7 -14 -8 -20 -16 -85 -46 -195 -54 -195 -3 0 -7 -6 -7
-12 0 -7 -3 -24 -6 -38 -4 -14 -15 -65 -27 -114 -11 -49 -24 -94 -28 -100 -5
-6 -14 -38 -21 -71 -7 -33 -25 -96 -39 -140 -13 -44 -33 -114 -43 -155 -9 -41
-34 -136 -54 -210 -20 -74 -49 -184 -65 -245 -16 -60 -38 -144 -50 -185 -12
-41 -23 -84 -25 -95 -5 -19 -20 -75 -64 -225 -12 -41 -35 -127 -51 -190 -16
-63 -34 -128 -40 -145 -6 -16 -18 -59 -26 -95 -21 -94 -22 -99 -29 -111 -4 -6
-20 -65 -36 -132 -16 -67 -33 -123 -39 -125 -5 -2 -10 -11 -10 -20 0 -29 -42
-205 -56 -237 -8 -16 -23 -68 -34 -115 -10 -47 -23 -101 -29 -120 -6 -19 -20
-73 -31 -120 -11 -47 -25 -94 -30 -105 -10 -20 -30 -97 -56 -220 -4 -16 -10
-36 -15 -45 -4 -8 -13 -35 -18 -60 -5 -25 -17 -70 -26 -100 -9 -30 -29 -108
-45 -173 -17 -65 -34 -126 -39 -135 -5 -9 -12 -33 -15 -53 -5 -34 -11 -55 -24
-89 -3 -8 -6 -17 -7 -20 0 -3 -8 -27 -17 -55 -9 -27 -24 -86 -34 -130 -9 -44
-20 -84 -24 -90 -4 -5 -18 -55 -30 -110 -12 -55 -28 -111 -35 -125 -7 -14 -16
-44 -20 -65 -8 -44 -29 -126 -51 -195 -8 -25 -16 -54 -19 -65 -2 -11 -13 -56
-24 -100 -28 -109 -59 -226 -181 -670 -17 -60 -41 -153 -55 -205 -58 -221 -76
-283 -95 -340 -16 -45 -34 -116 -55 -214 -1 -6 -5 -18 -8 -26 -7 -16 -42 -147
-58 -215 -5 -22 -13 -49 -18 -60 -10 -22 -13 -33 -45 -169 -9 -38 -20 -74 -25
-80 -8 -10 -14 -31 -26 -96 -3 -14 -14 -56 -24 -95 -11 -38 -31 -113 -45 -165
-14 -52 -25 -96 -26 -97 0 -2 -2 -8 -4 -15 -2 -7 -14 -51 -27 -98 -12 -47 -32
-121 -45 -165 -12 -44 -34 -125 -49 -180 -30 -112 -48 -179 -75 -275 -10 -36
-35 -128 -55 -205 -21 -77 -48 -176 -61 -220 -13 -44 -32 -117 -43 -161 -10
-45 -23 -90 -29 -100 -6 -11 -18 -55 -27 -98 -8 -44 -24 -104 -34 -135 -17
-52 -37 -128 -47 -176 -2 -11 -11 -45 -20 -75 -21 -72 -23 -79 -25 -88 -2 -4
-15 -56 -31 -117 -31 -120 -32 -123 -41 -145 -3 -8 -12 -42 -21 -75 -8 -33
-22 -87 -31 -120 -10 -33 -21 -78 -26 -100 -5 -22 -16 -61 -25 -86 -8 -25 -17
-57 -19 -70 -11 -58 -40 -155 -48 -160 -5 -3 -8 -8 -6 -10 5 -8 -14 -87 -41
-174 -15 -49 -38 -132 -50 -184 -12 -52 -26 -102 -30 -110 -5 -9 -16 -50 -25
-91 -9 -41 -23 -91 -30 -110 -8 -19 -24 -78 -35 -130 -12 -52 -28 -111 -35
-130 -8 -19 -20 -57 -26 -85 -6 -27 -13 -58 -15 -67 -2 -10 -6 -27 -9 -38 -4
-19 -16 -61 -36 -120 -5 -14 -10 -36 -13 -50 -7 -43 -28 -123 -43 -170 -8 -25
-24 -79 -34 -120 -11 -41 -26 -97 -34 -125 -13 -45 -32 -117 -70 -260 -7 -27
-21 -77 -30 -110 -28 -97 -85 -305 -101 -370 -8 -33 -28 -103 -44 -155 -16
-52 -32 -109 -35 -126 -2 -17 -14 -60 -24 -95 -11 -35 -29 -101 -40 -145 -10
-45 -23 -90 -29 -100 -5 -11 -20 -66 -32 -124 -13 -58 -27 -110 -31 -115 -4
-6 -10 -22 -12 -35 -10 -50 -92 -356 -126 -467 -5 -18 -8 -33 -6 -33 2 0 -2
-15 -10 -33 -7 -17 -16 -48 -19 -69 -3 -20 -12 -56 -20 -80 -8 -23 -17 -55
-20 -70 -5 -27 -14 -61 -42 -143 -7 -22 -15 -52 -18 -66 -5 -30 -44 -176 -53
-199 -10 -25 -61 -218 -88 -330 -14 -58 -32 -121 -40 -140 -8 -19 -24 -75 -35
-125 -11 -49 -24 -99 -30 -110 -5 -11 -21 -67 -35 -125 -14 -58 -30 -118 -34
-135 -5 -16 -23 -86 -40 -155 -17 -69 -35 -132 -40 -140 -5 -9 -12 -31 -15
-50 -7 -36 -27 -109 -51 -190 -8 -25 -16 -56 -19 -70 -3 -14 -10 -41 -15 -60
-19 -70 -52 -195 -56 -213 -2 -9 -7 -22 -10 -28 -4 -6 -19 -63 -35 -127 -15
-64 -32 -128 -38 -142 -6 -14 -18 -59 -27 -100 -9 -41 -23 -88 -30 -105 -7
-16 -25 -82 -40 -145 -15 -63 -31 -119 -35 -125 -4 -5 -15 -46 -25 -90 -9 -44
-26 -107 -36 -140 -16 -49 -107 -390 -124 -462 -2 -10 -9 -34 -14 -53 -6 -19
-17 -64 -26 -100 -9 -36 -22 -87 -30 -115 -51 -173 -70 -241 -91 -330 -14 -55
-28 -107 -33 -115 -4 -8 -16 -51 -26 -95 -10 -44 -28 -111 -40 -150 -13 -38
-29 -97 -36 -130 -7 -33 -18 -69 -25 -80 -7 -11 -22 -67 -34 -125 -13 -58 -27
-114 -32 -124 -6 -11 -23 -71 -38 -135 -15 -64 -32 -127 -38 -141 -6 -14 -18
-59 -27 -100 -9 -41 -20 -84 -25 -95 -9 -20 -67 -246 -77 -297 -3 -16 -8 -28
-12 -28 -4 0 -7 -8 -8 -17 -2 -23 -34 -149 -74 -293 -55 -200 -70 -254 -75
-280 -2 -14 -11 -43 -18 -65 -11 -31 -35 -120 -41 -155 -2 -12 -17 -57 -25
-75 -5 -11 -18 -63 -30 -115 -12 -52 -26 -106 -32 -120 -15 -34 -19 -49 -37
-135 -6 -33 -18 -71 -25 -85 -7 -14 -17 -43 -21 -65 -5 -22 -9 -44 -11 -50 -3
-10 -5 -19 -19 -80 -4 -16 -15 -53 -25 -80 -10 -28 -21 -67 -24 -87 -3 -20
-12 -56 -19 -80 -27 -85 -63 -220 -70 -264 -1 -10 -5 -23 -8 -29 -4 -5 -19
-59 -34 -120 -15 -60 -29 -117 -32 -125 -4 -8 -7 -19 -9 -25 -1 -5 -7 -28 -12
-50 -6 -22 -18 -65 -27 -95 -25 -85 -35 -121 -44 -165 -5 -22 -20 -79 -34
-126 -15 -47 -28 -97 -31 -110 -10 -47 -15 -64 -30 -108 -9 -24 -25 -85 -37
-135 -11 -50 -27 -108 -34 -128 -12 -31 -36 -121 -50 -192 -3 -10 -8 -23 -14
-30 -7 -8 -48 -179 -55 -231 0 -5 -6 -15 -12 -21 -6 -7 -21 -61 -33 -120 -12
-60 -27 -117 -32 -127 -6 -10 -21 -62 -35 -115 -26 -101 -28 -109 -88 -332
-20 -74 -46 -169 -57 -210 -10 -41 -21 -82 -23 -90 -48 -178 -98 -388 -98
-410 0 -14 11 -69 25 -121 19 -75 33 -108 65 -150 22 -30 51 -61 63 -69 12 -8
35 -26 51 -39 20 -16 69 -34 146 -53 l117 -28 1671 0 1672 0 108 26 c60 14
111 28 114 32 3 4 28 23 57 42 43 30 135 136 139 162 1 4 2 9 3 11 2 2 5 14
15 62 1 6 4 15 8 20 3 6 20 69 37 140 18 72 36 144 41 160 5 17 18 73 30 125
11 52 34 147 50 210 30 118 98 406 106 450 4 23 29 128 130 545 19 83 44 186
54 230 10 44 24 98 29 120 21 79 64 252 91 370 15 66 38 158 50 205 11 47 25
103 30 125 5 22 18 78 30 125 12 47 28 114 35 150 8 36 29 130 49 210 66 276
85 356 126 535 23 99 67 280 96 403 30 122 54 229 54 238 0 8 4 22 9 32 6 9
19 60 31 112 11 52 25 109 29 125 5 17 21 82 35 145 15 63 31 131 36 150 6 19
30 118 54 220 49 205 64 266 95 388 12 45 28 115 36 155 14 75 57 260 125 532
32 130 90 373 105 445 2 8 11 44 20 80 9 36 32 128 50 205 41 168 84 344 118
480 14 55 28 118 33 140 4 22 8 45 10 50 8 27 46 185 54 220 5 22 18 78 30
125 12 47 28 114 35 150 8 36 21 90 30 120 8 30 25 100 36 155 22 105 22 105
32 145 14 52 127 521 131 543 5 27 29 123 49 197 8 30 23 91 32 135 9 44 19
87 22 95 7 19 6 13 37 148 14 63 28 117 31 122 3 5 19 69 35 142 16 73 34 153
40 178 7 25 13 54 16 65 2 11 22 90 44 176 21 85 42 173 46 194 3 22 16 81 29
130 20 79 45 187 61 265 2 14 13 57 24 95 10 39 21 84 24 100 2 17 12 57 20
90 19 73 97 395 136 560 15 66 33 140 40 165 7 25 13 52 15 60 2 8 8 35 15 60
7 25 14 59 17 75 2 17 8 39 13 50 5 11 21 74 35 140 14 66 29 136 35 155 16
59 21 78 25 97 2 10 11 47 20 83 39 152 57 229 70 290 8 36 19 85 25 110 16
61 16 62 39 170 24 107 63 271 127 536 25 99 46 191 49 203 2 12 6 30 9 39 3
9 7 28 10 42 2 14 9 37 15 53 6 15 8 27 5 27 -2 0 0 8 5 18 5 9 11 31 14 47
20 110 29 152 37 170 5 11 19 63 30 115 12 52 24 102 27 110 3 8 7 20 9 27 1
6 11 51 23 100 11 48 22 101 25 116 6 33 59 252 86 352 10 39 28 117 40 175
11 58 25 119 31 135 8 26 75 300 84 345 4 19 28 118 65 275 25 105 44 184 55
235 2 8 19 81 39 163 79 325 106 438 120 498 8 35 19 82 25 104 21 78 83 331
101 410 10 44 30 130 45 190 62 257 93 392 100 430 4 22 10 44 13 50 4 5 7 16
8 23 3 18 41 182 76 327 15 66 31 129 33 140 3 11 18 79 35 150 17 72 37 160
45 198 8 37 16 71 19 76 3 4 8 23 11 41 3 19 11 40 17 47 6 7 8 13 5 13 -3 0
0 20 7 45 8 25 12 45 10 45 -2 0 3 18 11 40 8 22 14 41 13 43 -3 8 16 114 22
122 4 6 11 28 15 50 5 22 9 45 11 50 2 6 5 19 8 30 2 11 9 38 14 60 48 189 61
245 66 280 4 22 10 51 15 65 5 14 19 68 31 120 11 52 27 118 35 145 7 28 25
104 39 170 14 66 31 138 37 159 13 48 14 50 39 161 11 50 31 135 45 190 13 55
38 161 55 235 18 74 34 142 36 150 7 26 61 250 89 365 14 61 42 171 61 246 18
74 34 148 34 162 0 15 4 27 8 27 4 0 9 10 10 23 1 12 8 42 16 67 11 34 14 39
15 20 1 -14 8 -56 17 -95 8 -38 17 -79 19 -90 17 -79 99 -432 131 -565 14 -58
32 -139 39 -180 7 -41 23 -113 35 -160 23 -92 94 -397 109 -470 6 -25 24 -101
40 -170 52 -216 181 -792 196 -870 7 -41 23 -114 35 -162 19 -79 62 -271 76
-343 3 -16 10 -38 15 -47 5 -9 9 -26 9 -37 0 -11 16 -89 36 -173 19 -84 48
-209 64 -278 16 -69 45 -195 65 -280 94 -408 102 -443 181 -790 25 -113 48
-216 50 -230 3 -14 11 -47 19 -75 8 -27 21 -88 29 -135 9 -47 17 -94 20 -105
2 -11 16 -67 30 -125 14 -58 27 -121 30 -141 3 -20 10 -47 15 -60 5 -13 9 -27
9 -32 3 -28 16 -84 22 -97 4 -8 10 -35 13 -60 6 -51 44 -227 54 -250 3 -8 8
-26 10 -40 2 -14 13 -59 24 -102 10 -42 19 -86 19 -97 0 -12 5 -21 10 -21 6 0
10 -12 10 -27 0 -16 9 -68 20 -118 11 -49 23 -101 26 -115 3 -14 9 -38 14 -55
8 -24 118 -504 136 -590 2 -11 22 -99 44 -195 22 -96 50 -220 61 -275 11 -55
24 -118 29 -140 6 -25 5 -42 -1 -46 -5 -3 -7 -13 -3 -22 3 -9 2 -17 -4 -17 -6
0 -13 -14 -17 -30 -4 -17 -11 -27 -17 -24 -5 3 -9 -2 -7 -12 1 -11 -3 -30 -8
-44 -6 -14 -12 -29 -13 -35 -1 -5 -6 -16 -12 -23 -6 -7 -8 -15 -5 -18 3 -4 -1
-13 -9 -21 -8 -8 -12 -19 -9 -24 4 -5 2 -9 -4 -9 -6 0 -13 -16 -17 -35 -3 -19
-11 -35 -17 -35 -6 0 -7 -3 -4 -7 4 -3 2 -12 -4 -19 -6 -8 -9 -21 -5 -29 3 -9
2 -14 -3 -11 -4 3 -16 -19 -27 -49 -10 -30 -21 -55 -25 -55 -5 0 -6 -9 -4 -20
2 -11 0 -20 -4 -20 -8 0 -19 -29 -22 -57 -1 -5 -8 -17 -15 -28 -8 -11 -14 -27
-14 -37 0 -10 -5 -18 -11 -18 -5 0 -8 -4 -4 -9 3 -5 1 -12 -5 -16 -5 -3 -10
-17 -10 -31 0 -13 -4 -24 -8 -24 -9 0 -37 -78 -34 -92 1 -5 -3 -8 -8 -8 -6 0
-10 -9 -10 -19 0 -11 -5 -23 -10 -26 -6 -4 -8 -11 -5 -16 4 -5 1 -9 -4 -9 -6
0 -10 -3 -9 -7 1 -5 -4 -24 -11 -43 -8 -19 -15 -38 -16 -42 -1 -5 -4 -11 -5
-15 -1 -5 -2 -12 -1 -16 1 -4 -5 -10 -13 -13 -8 -3 -12 -12 -10 -19 3 -7 -1
-24 -9 -37 -8 -13 -23 -45 -33 -73 -10 -27 -25 -61 -33 -75 -9 -13 -11 -21 -4
-17 6 4 0 -13 -13 -38 -14 -25 -23 -45 -20 -45 4 0 -1 -15 -11 -32 -9 -18 -18
-37 -19 -43 -6 -26 -30 -81 -37 -86 -5 -3 -8 -10 -8 -15 1 -5 -4 -22 -10 -39
-7 -16 -11 -33 -10 -37 0 -5 -4 -8 -10 -8 -6 0 -9 -8 -7 -18 3 -10 -1 -23 -8
-30 -7 -7 -18 -30 -24 -52 -6 -22 -15 -40 -19 -40 -5 0 -7 -9 -4 -20 3 -11 1
-20 -5 -20 -5 0 -13 -12 -17 -27 -4 -16 -5 -28 -3 -28 1 0 -5 -11 -15 -25 -9
-13 -17 -34 -17 -46 0 -12 -5 -24 -10 -26 -6 -2 -12 -16 -14 -32 -2 -15 -8
-31 -13 -34 -6 -4 -14 -22 -18 -40 -3 -17 -11 -32 -15 -32 -5 0 -6 -7 -3 -17
5 -12 3 -14 -7 -8 -10 6 -12 4 -7 -7 3 -9 -3 -32 -14 -52 -11 -21 -17 -41 -14
-46 4 -6 1 -10 -4 -10 -6 0 -11 -7 -11 -15 0 -8 -4 -15 -10 -15 -5 0 -7 -6 -4
-14 3 -7 -5 -30 -16 -50 -12 -20 -17 -36 -11 -36 6 0 2 -9 -9 -20 -11 -11 -20
-29 -20 -39 0 -11 -5 -23 -10 -26 -6 -4 -8 -11 -5 -16 4 -5 1 -9 -5 -9 -6 0
-10 -6 -9 -12 2 -21 -13 -58 -23 -58 -5 0 -8 -6 -5 -12 2 -7 -3 -26 -11 -43
-9 -16 -15 -36 -14 -42 2 -7 -2 -13 -8 -13 -6 0 -9 -4 -5 -9 3 -5 1 -12 -5
-16 -5 -3 -10 -15 -10 -26 0 -10 -5 -19 -11 -19 -5 0 -7 -5 -4 -10 3 -6 -1
-17 -9 -26 -9 -9 -14 -19 -11 -24 3 -5 1 -11 -5 -15 -6 -4 -8 -11 -5 -16 4 -5
1 -9 -6 -9 -6 0 -9 -8 -6 -20 3 -11 -1 -23 -8 -28 -8 -4 -14 -11 -15 -17 -3
-29 -13 -55 -21 -55 -5 0 -8 -3 -8 -8 1 -4 0 -9 -1 -12 -1 -3 -3 -12 -5 -20
-2 -8 -9 -28 -16 -45 -7 -16 -13 -34 -13 -40 -1 -5 -7 -16 -13 -23 -7 -7 -13
-24 -13 -38 0 -13 -4 -24 -8 -24 -9 0 -37 -78 -34 -93 1 -4 -3 -7 -8 -7 -6 0
-10 -9 -10 -20 0 -11 -4 -20 -10 -20 -5 0 -9 -3 -9 -7 1 -5 0 -11 -1 -15 -1
-5 -3 -11 -5 -15 -1 -5 -8 -21 -15 -38 -7 -16 -12 -38 -12 -48 0 -9 -3 -17 -8
-17 -4 0 -11 -12 -16 -27 -8 -32 -7 -28 -25 -70 -7 -18 -17 -33 -21 -33 -4 0
-5 -9 -3 -20 2 -11 0 -20 -6 -20 -5 0 -9 -7 -9 -15 0 -8 -4 -15 -9 -15 -6 0
-8 -9 -6 -20 2 -11 0 -20 -5 -20 -5 0 -12 -16 -16 -35 -3 -19 -11 -35 -16 -35
-6 0 -8 -6 -5 -14 3 -8 -1 -17 -10 -21 -12 -4 -13 -9 -5 -17 8 -8 7 -14 -1
-24 -32 -36 -37 -44 -27 -44 11 0 -7 -39 -23 -51 -5 -3 -8 -8 -7 -10 4 -9 -13
-59 -19 -59 -6 0 -10 -16 -13 -57 -1 -7 -8 -15 -15 -17 -8 -3 -11 -11 -8 -16
4 -6 1 -17 -5 -25 -7 -8 -9 -15 -4 -15 5 0 4 -4 -3 -8 -6 -4 -13 -16 -15 -27
-1 -11 -9 -26 -15 -33 -7 -7 -13 -24 -13 -38 0 -13 -5 -24 -11 -24 -5 0 -8 -4
-4 -9 3 -5 0 -13 -6 -16 -5 -4 -8 -13 -5 -21 3 -8 2 -14 -3 -14 -8 0 -16 -20
-19 -43 0 -4 -8 -19 -16 -32 -9 -13 -18 -32 -20 -42 -9 -40 -19 -63 -27 -63
-5 0 -6 -6 -3 -14 3 -8 0 -17 -5 -21 -6 -3 -9 -11 -6 -16 4 -5 1 -9 -4 -9 -6
0 -11 -11 -11 -25 0 -14 -5 -25 -11 -25 -6 0 -9 -7 -5 -15 3 -8 1 -15 -4 -15
-6 0 -10 -9 -10 -19 0 -11 -5 -23 -10 -26 -6 -4 -8 -11 -5 -16 4 -5 2 -9 -3
-9 -6 0 -13 -16 -16 -35 -4 -19 -11 -35 -17 -35 -5 0 -9 -6 -8 -13 1 -6 -4
-25 -11 -42 -7 -16 -14 -36 -16 -43 -1 -7 -10 -24 -18 -38 -12 -18 -13 -24 -4
-24 9 0 8 -3 -2 -10 -8 -5 -15 -13 -16 -17 0 -4 -4 -16 -7 -25 -4 -10 -10 -26
-14 -35 -3 -10 -5 -21 -5 -25 1 -5 -3 -8 -9 -8 -6 0 -9 -9 -6 -20 3 -11 1 -20
-3 -20 -9 0 -56 -120 -52 -132 1 -5 -3 -8 -8 -8 -6 0 -10 -9 -10 -20 0 -11 -4
-20 -10 -20 -5 0 -7 -7 -4 -15 4 -8 1 -15 -5 -15 -6 0 -11 -7 -11 -15 0 -9
-13 -45 -29 -80 -17 -36 -28 -65 -26 -65 3 0 -4 -14 -14 -31 -11 -18 -17 -38
-14 -45 3 -8 0 -14 -6 -14 -6 0 -11 -5 -11 -10 0 -6 -7 -27 -16 -48 -10 -20
-18 -42 -20 -49 -1 -7 -9 -26 -17 -42 -9 -17 -18 -44 -22 -61 -4 -16 -11 -30
-17 -30 -6 0 -8 -9 -5 -20 3 -11 1 -20 -4 -20 -5 0 -9 -9 -9 -19 0 -11 -5 -23
-10 -26 -6 -4 -8 -11 -5 -16 4 -5 2 -9 -3 -9 -6 0 -13 -16 -16 -35 -4 -19 -12
-35 -18 -35 -6 0 -8 -9 -5 -20 3 -11 1 -20 -3 -20 -5 0 -12 -10 -16 -22 -4
-13 -6 -23 -4 -23 2 0 -7 -20 -20 -45 -13 -25 -23 -47 -23 -50 0 -3 -5 -18
-11 -35 -5 -16 -9 -33 -8 -37 1 -5 -2 -8 -7 -8 -4 0 -14 -20 -21 -45 -7 -25
-20 -50 -29 -55 -11 -6 -12 -9 -3 -10 10 0 8 -10 -6 -37 -23 -45 -45 -94 -47
-108 -6 -29 -18 -55 -27 -55 -5 0 -6 -9 -3 -20 4 -12 2 -20 -5 -20 -7 0 -9 -7
-6 -16 3 -8 2 -13 -3 -10 -5 3 -12 -10 -15 -29 -4 -19 -11 -35 -17 -35 -6 0
-8 -4 -5 -8 3 -5 -1 -20 -9 -35 -7 -14 -11 -28 -7 -31 3 -3 1 -6 -5 -6 -6 0
-14 -16 -17 -35 -4 -19 -11 -35 -16 -35 -6 0 -9 -3 -8 -7 1 -5 -3 -21 -8 -38
-6 -16 -12 -33 -12 -38 -1 -4 -9 -22 -19 -40 -9 -17 -16 -35 -15 -39 1 -3 -10
-27 -23 -53 -14 -26 -23 -51 -20 -56 4 -5 3 -9 -2 -9 -8 0 -32 -60 -36 -90 -1
-8 -5 -17 -8 -20 -11 -10 -49 -97 -49 -113 0 -9 -5 -17 -11 -17 -6 0 -9 -9 -6
-20 3 -11 1 -20 -4 -20 -5 0 -9 -7 -9 -15 0 -8 -4 -15 -10 -15 -5 0 -7 -6 -4
-14 3 -8 1 -17 -5 -21 -6 -3 -11 -15 -11 -26 0 -10 -5 -19 -10 -19 -6 0 -9 -3
-8 -7 2 -5 -2 -21 -9 -38 -17 -45 -24 -70 -23 -74 1 -2 -5 -8 -14 -13 -9 -5
-14 -13 -11 -18 3 -5 -1 -24 -9 -42 -21 -49 -29 -72 -28 -80 1 -5 -3 -8 -9 -8
-6 0 -9 -7 -5 -15 3 -8 2 -15 -3 -15 -8 0 -18 -22 -26 -55 -9 -35 -18 -55 -26
-55 -5 0 -6 -7 -3 -15 4 -8 1 -15 -7 -15 -7 0 -10 -3 -6 -6 5 -6 -29 -99 -59
-157 -8 -16 -12 -33 -8 -38 3 -5 0 -9 -6 -9 -6 0 -8 -4 -5 -10 3 -5 1 -10 -5
-10 -6 0 -8 -5 -5 -10 3 -6 1 -10 -4 -10 -6 0 -11 -8 -11 -18 0 -10 -3 -22 -7
-26 -4 -3 -8 -16 -10 -27 -2 -11 -12 -37 -23 -58 -10 -21 -16 -41 -13 -45 4
-3 1 -6 -5 -6 -6 0 -14 -16 -18 -35 -3 -19 -11 -35 -17 -35 -6 0 -7 -3 -4 -7
4 -3 0 -15 -10 -25 -9 -10 -11 -18 -5 -18 7 0 6 -8 -1 -25 -7 -14 -15 -25 -19
-25 -5 0 -8 -10 -8 -23 0 -12 -7 -33 -16 -45 -8 -12 -12 -22 -9 -22 4 0 -3
-16 -14 -36 -12 -19 -19 -40 -16 -45 4 -5 1 -9 -5 -9 -7 0 -10 -6 -7 -14 3 -8
1 -16 -4 -18 -6 -2 -11 -10 -13 -18 -2 -8 -7 -24 -11 -35 -4 -11 -19 -47 -32
-80 -13 -33 -28 -69 -33 -80 -5 -11 -12 -31 -16 -45 -4 -14 -11 -28 -16 -31
-5 -3 -10 -19 -11 -36 -1 -17 -6 -31 -12 -30 -5 1 -9 -7 -9 -18 0 -11 -3 -22
-6 -25 -6 -6 -50 -110 -55 -130 -2 -8 -4 -17 -5 -20 -1 -3 -2 -8 -1 -13 0 -4
-3 -7 -9 -7 -5 0 -10 -8 -10 -18 0 -10 -7 -28 -16 -40 -8 -12 -13 -26 -10 -31
3 -5 -1 -11 -9 -15 -8 -3 -12 -12 -9 -21 3 -8 1 -15 -5 -15 -6 0 -11 -8 -11
-18 0 -10 -9 -35 -20 -56 -10 -22 -17 -42 -15 -46 3 -4 -2 -13 -10 -20 -8 -7
-12 -16 -9 -21 3 -5 1 -9 -5 -9 -5 0 -8 -9 -6 -20 2 -11 0 -20 -5 -20 -8 0
-20 -26 -26 -55 -6 -32 -10 -41 -19 -47 -5 -4 -10 -13 -10 -20 -1 -17 -21 -65
-41 -101 -9 -15 -13 -35 -10 -43 3 -7 2 -14 -3 -14 -8 0 -22 -32 -25 -55 -1
-5 -5 -13 -11 -17 -5 -4 -11 -12 -11 -18 -1 -5 -3 -13 -4 -17 -2 -5 -4 -12 -5
-18 -1 -5 -14 -37 -29 -70 -15 -33 -28 -68 -29 -77 -1 -10 -5 -18 -9 -18 -4 0
-10 -16 -14 -35 -3 -19 -10 -35 -15 -35 -5 0 -8 -3 -7 -7 0 -5 -1 -15 -4 -23
-4 -8 -9 -24 -14 -35 -4 -11 -6 -23 -6 -27 1 -5 -3 -8 -8 -8 -6 0 -10 -6 -8
-12 1 -7 -6 -28 -15 -46 -10 -18 -15 -37 -12 -42 3 -6 2 -10 -4 -10 -8 0 -19
-22 -27 -55 -7 -27 -30 -81 -38 -86 -5 -4 -6 -11 -2 -17 3 -6 1 -12 -4 -14 -6
-2 -12 -13 -13 -26 0 -12 -4 -22 -8 -22 -5 0 -29 -66 -35 -99 -1 -8 -9 -18
-16 -22 -7 -5 -9 -9 -4 -9 4 0 1 -12 -9 -26 -9 -14 -14 -28 -11 -31 3 -3 -4
-19 -15 -34 -11 -16 -18 -29 -14 -29 3 0 -1 -13 -9 -29 -9 -16 -12 -31 -9 -35
4 -3 1 -6 -6 -6 -7 0 -10 -4 -6 -9 3 -5 1 -12 -5 -16 -6 -4 -8 -10 -5 -15 3
-4 -2 -13 -10 -20 -7 -6 -11 -18 -8 -26 3 -8 0 -14 -6 -14 -6 0 -10 -3 -9 -7
1 -5 -4 -24 -11 -43 -8 -19 -13 -38 -12 -42 0 -5 -3 -8 -9 -8 -5 0 -10 -8 -10
-18 0 -10 -3 -22 -7 -26 -5 -4 -9 -12 -9 -17 -1 -5 -2 -10 -4 -11 -1 -2 -3
-12 -5 -23 -2 -11 -9 -21 -15 -23 -5 -2 -8 -8 -4 -13 3 -5 1 -9 -4 -9 -6 0 -8
-9 -5 -20 3 -11 0 -20 -6 -20 -6 0 -11 -7 -11 -15 0 -8 -4 -15 -9 -15 -5 0 -7
-9 -4 -20 3 -12 0 -20 -7 -20 -7 0 -10 -7 -6 -15 3 -8 2 -15 -3 -15 -5 0 -12
-15 -15 -34 -4 -19 -13 -37 -22 -40 -8 -3 -12 -10 -9 -16 4 -6 -1 -24 -9 -41
-9 -17 -13 -35 -10 -40 3 -5 0 -9 -5 -9 -6 0 -11 -7 -11 -15 0 -8 -5 -15 -11
-15 -5 0 -8 -4 -5 -9 8 -12 -18 -73 -27 -64 -4 4 -6 -4 -4 -17 2 -14 -2 -31
-10 -38 -7 -7 -13 -24 -13 -38 0 -13 -5 -24 -11 -24 -5 0 -7 -4 -4 -10 3 -5 1
-10 -4 -10 -6 0 -11 -8 -11 -18 0 -10 -3 -22 -7 -26 -5 -4 -8 -11 -9 -14 0 -4
-6 -20 -12 -35 -7 -16 -12 -33 -12 -38 0 -5 -7 -12 -16 -16 -11 -4 -12 -8 -4
-13 9 -6 9 -13 -2 -31 -7 -13 -17 -27 -21 -30 -4 -3 -7 -10 -6 -15 1 -5 -2
-20 -8 -34 -13 -29 -25 -64 -23 -68 0 -1 -7 -10 -15 -19 -13 -13 -14 -18 -4
-24 10 -6 10 -9 -4 -15 -9 -3 -15 -10 -12 -14 3 -5 1 -11 -5 -15 -5 -3 -10
-15 -10 -26 0 -10 -5 -19 -12 -19 -6 0 -9 -3 -6 -6 4 -3 0 -21 -8 -40 -8 -19
-11 -34 -7 -34 4 0 -2 -7 -13 -15 -10 -8 -16 -15 -12 -15 4 0 -1 -20 -12 -45
-11 -25 -16 -45 -12 -45 4 0 3 -4 -3 -8 -19 -14 -36 -52 -24 -52 8 0 6 -7 -4
-18 -10 -10 -17 -24 -17 -30 0 -7 -4 -12 -10 -12 -5 0 -7 -6 -4 -14 3 -8 0
-17 -5 -21 -6 -3 -9 -11 -6 -16 4 -5 2 -9 -3 -9 -6 0 -13 -16 -16 -35 -4 -19
-11 -35 -16 -35 -6 0 -10 -11 -10 -25 0 -14 -5 -25 -10 -25 -6 0 -9 -3 -9 -8
1 -4 0 -9 -1 -12 -3 -9 -11 -45 -12 -57 -1 -7 -5 -10 -10 -7 -4 3 -9 -1 -9 -8
-4 -42 -18 -80 -28 -73 -5 2 -8 -3 -8 -13 0 -46 -4 -63 -13 -57 -5 3 -10 3
-11 -2 -2 -30 -11 -59 -19 -67 -6 -6 -10 -18 -10 -28 0 -10 -5 -18 -12 -18 -6
0 -8 -3 -5 -7 4 -3 2 -12 -5 -20 -6 -7 -8 -16 -5 -20 4 -3 -2 -18 -12 -32 -10
-14 -17 -34 -16 -43 2 -10 -1 -18 -6 -18 -5 0 -9 -7 -9 -15 0 -8 -4 -15 -9
-15 -5 0 -8 -8 -7 -18 2 -9 -3 -26 -10 -37 -8 -11 -14 -27 -14 -37 0 -10 -5
-18 -11 -18 -6 0 -9 -7 -5 -15 3 -9 0 -15 -9 -15 -9 0 -12 -6 -9 -15 4 -8 1
-21 -5 -29 -6 -7 -8 -16 -4 -19 3 -4 1 -7 -5 -7 -7 0 -12 -8 -12 -18 0 -10 -5
-23 -12 -30 -7 -7 -8 -12 -4 -12 5 0 3 -7 -4 -15 -7 -8 -9 -15 -5 -15 3 0 -3
-16 -15 -35 -12 -19 -19 -35 -16 -35 4 0 -3 -18 -14 -40 -11 -22 -18 -40 -14
-40 4 0 1 -6 -5 -13 -6 -8 -8 -17 -4 -20 3 -4 1 -7 -5 -7 -7 0 -12 -9 -12 -19
0 -11 -5 -23 -10 -26 -6 -4 -8 -11 -5 -16 4 -5 2 -9 -3 -9 -12 0 -24 -36 -24
-72 -1 -16 -5 -28 -10 -28 -5 0 -8 -6 -5 -12 2 -7 -1 -27 -8 -45 -8 -17 -11
-34 -8 -37 3 -3 1 -11 -4 -18 -6 -7 -9 -21 -8 -30 2 -10 -1 -20 -6 -24 -11 -6
-12 -97 -1 -108 4 -4 8 -16 8 -27 1 -10 2 -20 4 -21 1 -2 3 -10 5 -18 2 -8 8
-35 15 -60 6 -25 13 -57 14 -72 1 -15 7 -33 14 -40 7 -7 12 -18 12 -24 0 -7 8
-19 18 -26 18 -13 50 -59 48 -68 -2 -11 82 -86 140 -125 32 -22 60 -43 62 -47
2 -5 14 -8 27 -8 13 0 26 -4 30 -10 3 -5 12 -7 20 -3 9 3 21 1 28 -5 6 -5 22
-8 35 -7 13 1 25 -2 28 -7 3 -4 18 -8 35 -8 16 0 29 -4 29 -9 0 -5 8 -8 18 -6
9 1 29 -4 45 -12 15 -7 27 -10 27 -5 0 9 47 9 56 -1 3 -3 11 -4 18 -1 22 8
115 10 128 3 7 -4 18 -3 25 3 9 7 13 7 13 -1 0 -9 5 -9 20 -1 13 7 20 7 20 1
0 -7 8 -7 23 -2 13 5 30 6 37 1 7 -5 23 -5 34 0 12 4 30 4 41 0 11 -4 23 -6
27 -3 15 8 78 9 78 1 0 -5 8 -5 18 0 9 4 28 7 42 5 36 -6 48 -6 118 -1 34 2
62 0 62 -5 0 -5 6 -5 13 1 7 6 18 7 26 3 8 -5 26 -5 41 -1 15 4 33 4 40 0 7
-5 18 -6 24 -4 23 8 96 10 96 2 0 -5 8 -5 18 0 19 9 59 8 69 -2 3 -3 12 -1 20
5 9 9 13 8 13 0 0 -9 5 -9 20 -1 15 8 20 8 20 -2 0 -9 3 -9 12 0 8 8 17 8 31
1 11 -6 17 -7 14 -2 -3 4 19 8 49 8 30 0 54 -4 54 -8 0 -4 8 -4 18 1 9 4 28 7
42 5 36 -6 48 -6 118 -1 34 2 62 0 62 -5 0 -4 5 -5 11 -2 16 11 69 12 69 3 0
-5 8 -5 18 0 19 9 59 8 69 -2 3 -3 12 -1 20 5 9 9 13 8 13 0 0 -9 5 -9 20 -1
15 8 20 8 20 -2 0 -9 3 -9 12 0 8 8 17 8 31 1 11 -6 17 -7 14 -2 -3 4 19 8 49
8 30 0 54 -4 54 -8 0 -4 8 -4 18 1 9 4 28 7 42 5 36 -6 48 -6 118 -1 34 2 62
1 62 -4 0 -4 11 -4 23 1 13 5 30 6 37 1 7 -5 23 -5 34 0 12 4 30 4 41 0 11 -4
23 -6 27 -3 15 8 78 9 78 1 0 -5 8 -5 18 0 9 4 28 7 42 5 36 -6 48 -6 118 -1
34 2 62 0 62 -5 0 -5 6 -5 13 1 7 6 18 7 26 3 8 -5 26 -5 42 -1 15 5 30 6 33
3 6 -7 86 -9 86 -3 0 8 48 5 56 -3 3 -3 11 -4 18 -1 22 8 115 10 128 3 7 -4
18 -3 25 3 9 7 13 7 13 -1 0 -9 5 -9 20 -1 15 8 20 8 20 -1 0 -8 4 -8 13 -1 7
6 18 7 26 3 8 -5 26 -5 41 -1 15 4 33 4 40 0 7 -4 25 -4 41 0 15 5 30 6 33 2
3 -3 6 0 6 6 0 6 11 9 24 6 14 -2 28 0 31 6 3 5 16 10 29 10 12 0 26 3 30 7 4
4 17 9 29 10 83 10 118 23 185 66 34 22 62 44 62 49 0 4 6 8 14 8 8 0 26 15
40 33 14 17 33 41 43 52 10 11 17 24 15 28 -1 4 5 10 13 13 8 4 15 10 15 15 0
5 12 27 26 49 14 21 23 44 19 49 -3 6 -2 11 3 11 5 0 13 15 17 33 4 17 9 34
10 37 2 3 6 15 10 28 4 12 12 22 17 22 5 0 6 5 3 10 -4 6 -1 17 5 25 7 8 10
15 6 15 -4 0 0 12 7 28 8 15 12 33 10 40 -3 6 0 12 6 12 6 0 10 3 10 8 -3 17
14 72 23 72 5 0 8 6 6 13 -3 12 15 66 33 100 5 10 7 22 4 27 -4 6 -2 10 3 10
5 0 13 15 17 33 4 17 9 34 10 37 2 5 9 23 21 55 4 11 6 26 5 33 -1 6 3 12 10
12 6 0 9 8 6 20 -3 11 -1 23 4 26 5 3 9 14 9 25 0 10 5 19 12 19 6 0 8 3 5 6
-3 4 -1 16 5 28 7 11 13 24 14 29 1 4 3 10 4 15 1 4 3 12 4 17 1 6 8 24 16 40
7 17 14 35 15 40 1 6 3 13 5 18 5 13 7 22 15 55 4 18 12 35 16 38 5 3 7 10 4
15 -4 5 3 22 14 38 11 15 18 31 14 34 -3 4 -1 12 5 19 6 7 11 16 11 20 6 42
15 68 23 68 5 0 6 5 3 10 -4 6 -1 17 5 25 7 8 10 21 7 29 -3 8 1 17 10 20 8 4
13 13 9 21 -3 8 -1 17 5 20 5 4 7 11 4 16 -4 5 0 12 8 15 9 3 13 13 10 25 -3
11 0 19 6 19 7 0 11 6 10 12 -1 7 1 21 4 31 4 9 10 25 14 35 3 9 5 22 4 29 -1
6 3 14 9 18 5 3 10 15 10 26 0 10 4 19 8 19 4 0 9 9 10 20 1 11 2 28 3 37 1
10 8 24 16 31 12 12 17 34 14 55 0 4 4 7 10 7 7 0 9 9 6 21 -3 12 0 22 9 26 8
3 12 9 9 13 -5 8 13 59 25 70 3 3 6 16 8 30 1 14 3 31 4 38 1 6 5 12 10 12 4
0 8 11 8 25 0 14 5 25 12 25 6 0 8 3 5 7 -4 3 0 15 10 25 12 14 13 18 3 18
-11 0 -11 3 -2 12 7 7 12 20 12 30 0 10 4 18 9 18 5 0 12 20 15 45 4 25 12 45
17 45 6 0 8 4 5 9 -3 5 1 21 9 37 7 15 12 31 9 36 -3 4 0 8 6 8 6 0 8 4 5 10
-3 5 -2 10 4 10 5 0 12 18 16 40 4 22 10 40 15 40 4 0 7 10 6 23 l-1 22 1400
0 1400 0 0 -32 c0 -17 3 -35 7 -38 4 -4 10 -34 14 -66 4 -33 10 -59 15 -59 5
0 7 -10 5 -22 -1 -12 4 -29 12 -37 10 -10 11 -16 4 -19 -8 -2 -8 -13 2 -35 7
-18 12 -40 10 -49 -1 -10 2 -20 7 -24 5 -3 9 -20 9 -39 0 -19 5 -37 10 -40 6
-4 8 -15 5 -25 -3 -10 -1 -21 5 -25 5 -3 8 -17 6 -31 -3 -14 -1 -22 5 -19 10
7 12 -5 9 -47 -1 -16 3 -28 9 -28 5 0 10 -8 9 -17 0 -10 5 -43 12 -73 6 -30
13 -62 14 -70 1 -8 6 -23 10 -33 5 -9 6 -26 3 -37 -3 -10 1 -21 9 -24 7 -3 11
-14 9 -27 -3 -13 0 -27 5 -34 5 -6 7 -23 6 -38 -2 -15 1 -27 5 -27 5 0 9 -13
9 -30 0 -16 4 -30 9 -30 5 0 7 -14 6 -30 -1 -17 1 -33 6 -36 5 -3 7 -10 4 -15
-4 -5 0 -9 7 -9 11 0 11 -2 0 -9 -11 -7 -11 -11 1 -22 7 -8 12 -27 10 -42 -3
-19 0 -26 7 -22 6 4 10 -4 9 -22 0 -15 5 -48 11 -73 7 -25 13 -55 14 -67 1
-12 5 -25 9 -29 4 -4 7 -20 7 -36 0 -15 3 -28 8 -28 4 0 8 -15 9 -32 3 -48 8
-71 18 -88 5 -8 8 -25 6 -37 -1 -13 1 -28 6 -35 7 -12 10 -31 16 -80 0 -10 5
-18 10 -18 4 0 5 -5 2 -10 -4 -6 -2 -16 3 -23 5 -7 8 -20 7 -29 -2 -10 1 -20
6 -24 5 -3 9 -20 9 -39 0 -19 4 -36 9 -39 4 -3 6 -17 3 -31 -2 -14 0 -25 5
-25 5 0 10 -10 11 -22 6 -66 15 -108 24 -108 6 0 7 -7 4 -16 -4 -10 1 -25 9
-34 11 -13 13 -20 5 -25 -7 -4 -8 -11 -1 -19 10 -12 17 -41 28 -106 3 -19 10
-46 16 -60 6 -14 10 -28 9 -32 -1 -5 2 -8 7 -8 5 0 23 -22 41 -50 18 -27 36
-50 42 -50 5 0 6 -5 3 -10 -3 -6 1 -13 9 -16 9 -3 16 -12 16 -19 0 -8 8 -16
18 -19 9 -4 32 -20 51 -36 18 -17 40 -30 47 -30 7 0 18 -9 24 -20 6 -11 19
-20 29 -20 10 0 21 -3 25 -8 4 -4 15 -7 24 -8 10 0 25 -4 34 -8 10 -5 24 -6
32 -3 8 3 16 2 18 -3 3 -8 38 -16 106 -24 13 -1 27 -7 30 -12 9 -12 155 -12
165 1 5 7 9 7 15 0 9 -14 95 -13 105 0 5 7 9 7 15 0 9 -12 102 -14 102 -2 0 4
5 5 11 1 18 -11 228 -10 233 1 3 7 7 6 13 0 10 -14 96 -13 106 0 5 7 9 7 15 0
9 -12 102 -14 102 -2 0 4 5 5 11 1 18 -11 228 -10 233 1 3 7 7 6 13 0 10 -14
96 -13 106 0 5 7 9 7 15 0 9 -12 102 -14 102 -2 0 4 5 5 11 1 18 -11 228 -10
233 1 3 7 7 6 13 0 10 -14 96 -13 106 0 5 7 9 7 15 0 9 -12 102 -14 102 -2 0
4 5 5 11 1 18 -11 228 -10 233 1 3 7 7 6 13 0 10 -14 96 -13 106 0 5 7 9 7 15
0 9 -12 102 -14 102 -3 0 5 8 5 18 1 21 -10 133 -10 150 1 7 4 12 3 12 -1 0
-13 93 -10 103 2 4 6 10 5 16 -3 4 -8 12 -14 16 -14 4 0 12 6 16 14 5 7 9 8 9
2 0 -13 92 -13 103 1 4 6 10 5 16 -3 4 -8 12 -14 16 -14 4 0 12 6 16 14 5 7 9
8 9 2 0 -13 92 -13 103 1 4 6 10 5 16 -3 11 -17 21 -17 32 0 5 7 9 8 9 2 0
-13 92 -13 103 1 4 6 10 5 16 -3 11 -17 21 -17 32 0 5 7 9 8 9 3 0 -6 23 -10
50 -10 28 0 50 3 50 7 0 4 10 4 23 0 28 -10 78 -9 95 1 7 5 12 3 12 -3 0 -7 7
-6 21 3 11 8 29 13 40 10 10 -3 19 -1 19 4 0 5 6 10 13 11 42 4 97 16 97 21 0
4 12 6 27 5 30 -1 83 22 83 37 0 5 3 8 8 7 8 -3 85 52 90 65 2 4 7 5 12 2 5
-3 18 7 29 22 11 16 26 35 33 43 7 8 13 17 13 20 1 11 22 42 28 41 4 -1 7 2 8
7 0 4 8 16 18 27 10 11 17 28 16 38 -2 9 1 17 7 17 6 0 8 9 5 20 -3 10 1 24 8
30 7 5 11 21 9 35 -1 14 2 25 8 25 6 0 8 9 5 20 -3 10 1 27 8 37 7 9 11 23 8
30 -3 7 -1 19 5 26 12 15 12 87 0 87 -5 0 -7 13 -4 30 2 16 0 32 -5 36 -5 3
-9 19 -9 35 0 17 -4 28 -9 25 -5 -3 -7 8 -6 24 1 17 -1 30 -6 30 -5 0 -9 13
-9 29 0 17 -4 32 -9 35 -4 3 -7 17 -6 31 2 14 -1 25 -7 25 -5 0 -8 8 -7 18 1
9 0 24 -4 32 -10 28 -23 81 -31 132 -2 15 -8 33 -12 40 -5 7 -9 20 -10 28 0 8
-3 22 -6 30 -6 16 -32 129 -33 145 -1 6 -6 20 -13 32 -9 16 -9 24 -1 29 8 4 7
9 -2 15 -8 4 -14 16 -15 26 0 10 -6 38 -14 63 -7 25 -12 51 -11 58 1 8 -3 20
-10 28 -6 7 -9 20 -6 29 4 8 0 21 -8 29 -17 17 -20 30 -4 20 6 -3 4 7 -4 22
-8 16 -13 37 -12 47 2 9 0 17 -5 17 -4 0 -10 17 -13 38 -8 45 -12 62 -22 85
-4 10 -5 21 -2 24 4 3 1 15 -5 27 -7 11 -13 28 -14 36 -2 15 -4 23 -24 100 -6
25 -11 55 -11 68 0 12 -3 22 -8 22 -8 0 -19 45 -23 98 -1 12 -6 22 -10 22 -5
0 -6 11 -4 25 3 14 1 25 -4 25 -8 0 -19 42 -23 89 -1 13 -7 26 -14 28 -8 3 -9
12 -3 28 6 16 5 25 -2 27 -6 2 -13 13 -14 24 -5 30 -15 78 -21 94 -5 14 -12
45 -17 82 -1 10 -5 21 -9 24 -4 4 -7 20 -7 36 0 15 -4 28 -10 28 -5 0 -7 7 -4
15 4 8 1 15 -6 15 -6 0 -10 10 -9 23 3 26 -10 77 -23 94 -6 7 -8 19 -5 28 4 8
2 17 -3 20 -5 3 -9 16 -8 28 0 12 -4 34 -10 50 -6 15 -8 27 -5 27 4 0 2 5 -5
12 -7 7 -12 24 -12 38 0 15 -3 30 -7 34 -7 7 -12 26 -16 68 -2 15 -6 31 -10
34 -4 4 -7 18 -7 30 0 13 -5 26 -10 29 -6 3 -8 16 -6 28 2 13 -2 31 -10 42
-10 14 -11 22 -2 32 9 11 8 13 -2 11 -9 -2 -14 7 -14 24 -1 14 -4 30 -8 34 -5
4 -8 18 -8 30 0 13 -4 25 -10 29 -5 3 -7 12 -3 20 3 9 0 22 -7 30 -6 8 -9 18
-6 24 3 5 -1 22 -9 37 -11 21 -11 30 -2 36 8 5 7 9 -5 13 -9 4 -16 16 -17 28
-4 72 -7 87 -17 87 -7 0 -10 12 -8 30 2 17 0 30 -5 30 -5 0 -8 12 -6 26 1 14
-3 28 -11 31 -7 2 -10 11 -7 19 3 8 2 22 -3 32 -4 9 -8 24 -8 34 -1 9 -4 20
-8 24 -5 4 -8 17 -8 29 0 12 -3 25 -7 28 -3 4 -8 17 -9 30 -6 48 -12 75 -23
94 -5 11 -8 23 -5 26 3 3 2 12 -2 19 -5 7 -10 22 -11 33 -7 50 -16 85 -22 85
-4 0 -7 10 -6 22 1 13 -2 29 -7 35 -6 7 -8 19 -5 27 3 8 -1 20 -8 26 -10 9
-12 17 -5 30 7 13 6 20 -5 24 -10 3 -13 16 -11 35 2 17 -1 28 -5 25 -5 -3 -9
8 -9 24 0 16 -3 32 -7 36 -5 4 -8 15 -9 24 0 10 -4 25 -8 34 -4 10 -6 23 -4
30 3 7 -1 18 -8 25 -7 7 -10 22 -7 33 3 11 1 20 -5 20 -5 0 -13 23 -16 52 -4
28 -10 57 -14 62 -4 6 -7 18 -8 26 -1 24 -15 74 -24 92 -6 10 -7 24 -4 33 3 8
1 15 -6 15 -6 0 -10 8 -7 18 2 9 -3 29 -10 44 -7 15 -13 30 -13 33 0 3 -1 8
-1 13 -1 4 -2 16 -4 27 -4 41 -18 85 -26 85 -5 0 -7 11 -5 25 3 14 1 25 -3 25
-13 0 -20 39 -9 46 6 4 5 10 -3 15 -7 4 -14 18 -15 31 -1 13 -6 34 -9 48 -4
14 -9 40 -12 57 -3 18 -8 33 -12 33 -6 0 -10 18 -14 70 -1 14 -6 28 -10 31 -5
3 -9 20 -9 37 -1 18 -5 32 -11 32 -5 0 -7 11 -5 24 3 15 0 27 -8 30 -7 3 -10
14 -7 25 3 12 1 27 -5 34 -5 6 -8 20 -7 30 2 9 -1 17 -6 17 -5 0 -9 13 -9 29
0 17 -4 32 -10 36 -5 3 -7 12 -3 20 3 9 0 22 -7 30 -7 8 -10 24 -7 35 3 11 1
23 -4 26 -5 3 -9 16 -9 30 0 13 -5 24 -10 24 -6 0 -8 11 -6 25 3 14 -1 31 -8
37 -7 7 -10 22 -8 35 2 13 0 23 -6 23 -6 0 -11 8 -11 18 0 35 -8 79 -16 92 -8
13 -12 34 -18 88 -1 12 -5 22 -9 22 -5 0 -8 14 -8 30 0 17 -4 30 -10 30 -5 0
-8 10 -6 23 1 12 -1 29 -5 37 -12 22 -22 72 -20 93 1 9 -3 17 -10 17 -7 0 -9
10 -7 25 3 13 1 26 -5 28 -5 1 -11 18 -14 37 -7 59 -9 69 -16 76 -4 4 -7 20
-7 36 0 15 -4 28 -10 28 -5 0 -10 10 -10 23 0 44 -7 76 -18 90 -7 8 -9 17 -6
20 4 3 3 14 -1 24 -5 10 -9 24 -11 32 -1 8 -6 26 -10 40 -4 14 -6 32 -5 39 1
6 -3 12 -8 12 -5 0 -8 11 -5 25 2 15 0 25 -7 25 -6 0 -9 6 -6 13 2 6 0 23 -6
37 -5 14 -10 35 -11 48 -1 13 -8 27 -15 31 -9 6 -10 11 -2 15 8 5 8 13 1 26
-5 10 -10 28 -10 39 0 12 -5 21 -11 21 -7 0 -9 10 -7 25 3 14 1 28 -3 31 -5 3
-9 18 -9 35 0 16 -4 29 -10 29 -5 0 -7 7 -4 15 4 8 1 15 -6 15 -8 0 -11 12 -8
33 2 19 -2 39 -9 46 -7 6 -10 18 -7 26 4 8 2 15 -4 15 -5 0 -9 10 -9 23 0 12
-2 29 -6 37 -5 13 -9 30 -24 90 -2 8 -5 25 -7 37 -1 12 -8 28 -14 35 -6 8 -10
23 -8 33 2 11 0 27 -4 35 -12 25 -33 113 -33 138 1 12 -4 22 -9 22 -6 0 -8 11
-6 25 3 14 0 29 -6 33 -6 4 -12 16 -13 27 -8 62 -27 145 -34 145 -4 0 -8 8 -8
18 0 37 -12 87 -20 90 -5 2 -8 14 -5 27 2 13 0 27 -6 30 -5 3 -10 19 -10 36 0
16 -3 29 -7 29 -5 0 -9 11 -10 25 -1 14 -4 36 -5 50 -1 14 -6 25 -10 25 -4 0
-8 13 -8 29 0 17 -4 32 -9 35 -5 4 -8 14 -6 24 1 9 -2 23 -8 30 -5 7 -7 15 -4
19 3 3 0 18 -8 33 -8 15 -12 30 -8 33 3 4 2 14 -3 24 -4 10 -8 25 -9 35 -1 9
-6 25 -10 35 -4 10 -9 25 -10 33 -2 8 -6 26 -10 40 -4 14 -9 36 -12 50 -2 14
-7 32 -10 40 -4 8 -7 22 -8 30 -1 8 -5 23 -9 33 -5 9 -6 24 -2 32 3 8 1 15 -4
15 -6 0 -10 14 -10 30 0 17 -5 30 -11 30 -6 0 -9 9 -6 20 3 11 1 23 -4 26 -6
3 -9 13 -7 22 1 10 -2 26 -8 37 -6 11 -9 30 -8 43 0 12 -3 22 -9 22 -5 0 -7 8
-5 18 3 10 -1 27 -8 37 -9 13 -10 22 -4 31 7 8 6 13 -3 17 -8 3 -14 16 -13 29
1 13 -2 26 -6 29 -8 5 -17 51 -20 97 -1 12 -5 22 -9 22 -5 0 -6 9 -4 19 2 11
-2 25 -10 31 -7 6 -10 20 -7 32 4 15 2 19 -7 13 -10 -5 -12 1 -8 29 3 23 0 39
-9 47 -8 6 -11 15 -8 21 3 5 1 15 -5 21 -5 7 -10 22 -10 32 -1 35 -13 85 -21
85 -5 0 -7 11 -4 25 2 14 1 25 -4 25 -4 0 -9 12 -10 28 -1 15 -6 28 -11 30 -5
2 -7 12 -4 23 3 10 0 26 -7 34 -7 8 -10 22 -6 30 3 8 0 20 -8 27 -7 7 -10 22
-8 35 2 13 0 23 -5 23 -6 0 -9 11 -8 25 2 14 -1 25 -7 25 -6 0 -8 6 -5 14 3 7
0 19 -6 25 -8 8 -7 11 4 11 11 1 11 3 -2 10 -10 6 -15 20 -14 35 2 14 -1 25
-7 25 -6 0 -8 9 -5 20 3 11 1 23 -4 26 -5 3 -9 18 -9 35 0 16 -5 29 -10 29 -6
0 -8 11 -6 25 3 14 0 25 -6 25 -6 0 -8 11 -6 25 3 14 0 29 -7 35 -7 6 -10 21
-7 35 2 14 0 25 -6 25 -5 0 -13 17 -16 37 -9 55 -13 78 -16 78 -1 0 -4 14 -6
30 -3 17 -10 32 -15 33 -6 3 -6 9 1 17 8 9 7 17 -4 28 -9 8 -13 24 -11 36 2
12 0 21 -4 21 -8 0 -22 67 -22 103 0 9 -4 17 -8 17 -5 0 -9 10 -9 23 0 12 -7
42 -15 66 -9 24 -14 52 -12 62 2 10 0 19 -4 19 -9 0 -25 75 -22 98 1 6 -2 12
-8 12 -5 0 -8 8 -7 17 2 9 -3 28 -10 42 -7 13 -11 28 -8 33 3 5 1 14 -4 21 -9
12 -10 16 -15 72 -1 17 -6 33 -12 37 -5 4 -10 17 -10 30 -1 13 -4 30 -7 38
-12 30 -21 75 -19 94 2 11 -2 16 -8 12 -7 -5 -9 4 -7 23 2 17 -1 31 -5 31 -5
0 -9 14 -9 30 0 17 -4 30 -9 30 -5 0 -8 11 -5 25 2 14 0 25 -5 25 -4 0 -8 12
-8 27 0 15 -5 29 -10 30 -6 2 -8 14 -6 27 3 13 0 27 -6 30 -6 4 -11 18 -11 32
0 14 -5 34 -11 45 -10 20 -20 70 -22 122 -1 15 -7 27 -12 27 -6 0 -11 8 -12
18 -3 37 -10 68 -18 82 -5 8 -8 25 -6 38 1 12 -2 22 -8 22 -7 0 -9 11 -7 26 3
15 0 27 -8 30 -8 3 -11 16 -8 34 3 19 0 30 -8 30 -7 0 -10 7 -6 16 4 9 1 23
-5 30 -6 8 -9 20 -6 29 4 8 1 20 -6 27 -7 7 -13 22 -14 33 -5 45 -24 128 -33
140 -4 6 -6 20 -5 33 1 12 -2 22 -6 22 -3 0 -9 9 -12 20 -3 11 0 20 5 20 6 0
4 7 -3 17 -8 9 -13 24 -11 35 2 10 -1 18 -7 18 -6 0 -11 10 -11 23 0 39 -12
97 -20 97 -5 0 -7 11 -4 25 3 16 -1 27 -10 31 -8 3 -12 13 -9 25 3 10 0 25 -6
32 -6 8 -8 17 -5 20 4 3 3 14 -2 24 -4 10 -9 25 -10 33 -1 8 -7 29 -12 47 -6
17 -8 34 -4 37 3 3 0 6 -7 6 -8 0 -11 10 -7 30 2 18 0 30 -7 30 -5 0 -8 3 -4
6 3 4 0 18 -7 33 -7 14 -12 36 -10 49 2 12 -1 22 -6 22 -6 0 -10 14 -10 30 0
17 -4 30 -8 30 -4 0 -9 10 -10 23 -4 57 -9 78 -19 88 -8 8 -9 19 -2 36 6 16 5
22 -1 18 -6 -3 -11 0 -12 7 -2 23 -5 32 -13 51 -4 10 -5 21 -1 24 3 4 0 16 -8
27 -7 12 -12 31 -10 44 2 12 -1 22 -6 22 -6 0 -10 9 -10 21 0 11 -5 29 -10 39
-7 13 -7 21 0 25 6 4 4 12 -5 22 -9 9 -14 22 -11 29 3 7 1 16 -5 20 -6 3 -8
12 -5 19 2 7 -2 25 -10 40 -8 15 -11 31 -8 36 3 6 0 16 -6 24 -7 8 -10 24 -7
34 3 11 0 22 -6 24 -7 2 -11 16 -9 30 1 15 -3 27 -9 27 -5 0 -9 6 -7 13 1 6
-4 35 -11 63 -7 29 -13 59 -15 68 -1 8 -5 19 -9 22 -4 4 -7 20 -7 36 0 15 -4
28 -8 28 -7 0 -9 41 -2 60 4 12 31 -64 33 -92 1 -10 4 -18 8 -18 8 0 23 -59
21 -83 -1 -10 3 -15 8 -12 6 3 10 -3 10 -14 0 -11 5 -23 11 -26 6 -4 8 -13 5
-21 -3 -7 -1 -16 5 -20 6 -3 8 -12 5 -20 -3 -7 2 -18 12 -23 9 -5 14 -13 10
-17 -4 -3 -1 -22 7 -41 8 -20 15 -44 15 -54 0 -11 5 -19 11 -19 6 0 9 -7 6
-15 -4 -8 -2 -17 3 -20 6 -4 10 -17 10 -31 0 -13 4 -24 10 -24 5 0 9 -3 8 -7
-1 -5 4 -25 11 -46 7 -21 14 -44 15 -50 2 -7 8 -25 14 -40 7 -16 12 -34 12
-42 0 -8 5 -17 10 -20 6 -4 8 -11 4 -16 -3 -5 0 -16 6 -24 7 -8 10 -21 7 -29
-3 -8 1 -17 9 -20 8 -3 14 -9 13 -13 -4 -18 14 -73 23 -73 6 0 8 -6 5 -13 -3
-8 3 -31 12 -53 10 -21 16 -45 14 -51 -3 -7 0 -13 6 -13 6 0 8 -7 5 -15 -4 -8
-1 -15 5 -15 6 0 11 -8 11 -18 0 -19 34 -126 49 -152 4 -8 7 -23 5 -32 -1 -10
2 -18 7 -18 5 0 9 -9 9 -20 0 -11 4 -20 10 -20 5 0 7 -6 4 -13 -2 -7 2 -27 11
-43 8 -16 15 -39 15 -51 0 -13 5 -23 10 -23 6 0 10 -6 9 -12 -1 -7 1 -21 4
-30 4 -10 10 -26 14 -35 3 -10 5 -23 4 -30 -1 -6 3 -14 9 -18 5 -3 10 -17 10
-31 0 -17 4 -23 12 -18 7 4 8 3 4 -5 -4 -6 -2 -18 4 -26 6 -8 9 -19 6 -24 -4
-5 -2 -12 4 -16 5 -3 10 -17 10 -31 0 -13 5 -24 11 -24 6 0 9 -6 6 -14 -3 -7
1 -25 8 -39 7 -14 11 -28 7 -31 -3 -3 0 -6 7 -6 7 0 9 -5 6 -10 -4 -6 -2 -17
4 -24 6 -7 12 -28 13 -47 2 -19 9 -40 16 -48 7 -7 11 -19 8 -27 -3 -7 0 -14 6
-16 5 -2 11 -18 11 -36 1 -17 8 -34 15 -37 7 -3 12 -13 11 -22 -2 -10 2 -28 9
-40 7 -13 10 -23 6 -23 -3 0 -1 -7 6 -15 6 -8 9 -19 5 -25 -3 -5 -1 -10 6 -10
6 0 9 -8 6 -20 -3 -10 -1 -20 5 -22 5 -2 10 -11 12 -20 1 -10 5 -21 9 -24 4
-4 7 -18 7 -31 0 -12 4 -23 8 -23 8 0 10 -7 14 -50 1 -11 6 -20 10 -20 4 0 8
-10 8 -23 0 -13 5 -28 12 -35 7 -7 8 -12 4 -12 -5 0 -1 -11 8 -25 12 -18 13
-25 4 -25 -8 0 -5 -5 5 -11 9 -6 15 -15 11 -20 -3 -5 -2 -15 3 -22 13 -16 37
-99 34 -114 -1 -7 3 -13 9 -13 5 0 10 -11 10 -25 0 -14 4 -25 8 -25 5 0 9 -6
10 -12 1 -22 25 -103 31 -108 7 -6 13 -27 15 -57 0 -11 4 -19 9 -16 4 2 8 -3
8 -11 2 -17 4 -31 9 -43 2 -5 4 -12 4 -18 1 -5 7 -20 14 -32 7 -13 10 -23 6
-23 -3 0 -1 -7 6 -15 6 -8 9 -19 5 -25 -3 -5 1 -13 10 -16 12 -5 13 -10 4 -20
-9 -11 -8 -15 5 -20 9 -3 15 -11 14 -18 -2 -10 15 -69 30 -106 3 -8 7 -19 7
-25 1 -5 8 -23 15 -40 7 -16 12 -38 12 -47 0 -10 3 -18 9 -18 5 0 9 -11 9 -25
0 -14 4 -25 8 -25 5 0 9 -6 10 -12 1 -7 3 -24 4 -38 2 -14 8 -31 15 -38 7 -7
9 -20 6 -29 -5 -12 -3 -14 7 -8 10 6 12 4 7 -8 -3 -9 -2 -19 3 -22 4 -3 11
-23 15 -45 4 -22 11 -42 16 -46 5 -3 9 -16 9 -30 0 -13 4 -24 9 -24 6 0 8 -9
6 -20 -2 -11 0 -20 5 -20 4 0 11 -18 15 -40 4 -22 12 -40 18 -40 5 0 8 -3 4
-6 -3 -3 -1 -18 5 -33 5 -14 12 -37 15 -51 2 -13 9 -28 15 -31 6 -4 8 -14 5
-23 -4 -10 -1 -19 8 -22 7 -3 11 -12 8 -20 -3 -8 1 -22 8 -31 8 -9 13 -18 12
-19 -6 -9 11 -64 19 -64 5 0 6 -9 3 -20 -4 -12 -2 -20 5 -20 7 0 10 -6 7 -14
-3 -8 -2 -16 3 -18 5 -2 11 -14 14 -28 2 -14 6 -27 7 -30 1 -3 3 -9 4 -15 4
-21 19 -51 34 -69 9 -11 10 -16 4 -12 -14 8 -18 -6 -5 -18 7 -8 8 -13 11 -42
0 -8 5 -13 10 -10 4 3 8 -2 8 -12 -1 -25 26 -112 34 -112 5 0 6 -9 4 -19 -2
-11 3 -22 10 -25 8 -3 11 -13 8 -25 -3 -13 -1 -21 6 -21 7 0 9 -5 6 -10 -4 -6
-2 -16 3 -23 6 -7 13 -29 17 -50 4 -20 11 -37 16 -37 4 0 6 -9 4 -20 -2 -12 2
-23 11 -27 11 -4 12 -9 3 -19 -9 -11 -8 -14 4 -14 11 0 14 -6 11 -15 -4 -8 -1
-22 6 -30 7 -8 9 -15 4 -15 -4 0 -3 -5 4 -12 7 -7 12 -22 12 -34 0 -13 5 -26
11 -30 6 -3 9 -17 6 -30 -2 -13 0 -24 4 -24 5 0 9 -8 9 -18 0 -10 3 -22 8 -26
4 -4 7 -11 8 -14 2 -16 17 -68 23 -77 6 -12 9 -23 13 -50 2 -11 9 -25 17 -31
11 -9 11 -13 1 -19 -10 -6 -9 -9 1 -16 8 -4 14 -12 15 -16 5 -32 18 -74 25
-79 4 -2 6 -11 2 -19 -3 -8 1 -15 8 -15 7 0 10 -3 6 -6 -3 -4 0 -19 8 -34 8
-15 11 -30 8 -33 -3 -4 0 -13 7 -22 7 -8 9 -15 4 -15 -5 0 -3 -4 3 -8 7 -4 15
-19 17 -32 2 -14 5 -27 6 -30 2 -3 2 -9 1 -13 -1 -4 6 -22 16 -40 9 -18 16
-40 14 -49 -1 -10 3 -18 10 -18 6 0 9 -8 6 -19 -3 -11 1 -22 9 -25 7 -3 11
-12 8 -21 -4 -8 -1 -15 6 -15 7 0 10 -7 6 -15 -3 -9 -2 -23 3 -33 16 -28 24
-56 22 -69 -1 -7 3 -13 10 -13 6 0 9 -6 6 -14 -3 -8 0 -20 8 -26 7 -6 11 -20
8 -30 -3 -12 0 -20 6 -20 7 0 11 -6 10 -12 -1 -7 3 -26 10 -43 7 -16 13 -38
14 -47 1 -10 5 -18 9 -18 4 0 8 -10 8 -23 0 -13 3 -27 7 -31 4 -3 8 -13 10
-21 7 -35 20 -72 34 -98 5 -10 7 -22 4 -26 -2 -5 2 -14 10 -21 11 -9 12 -16 5
-25 -8 -9 -6 -14 5 -18 8 -4 12 -13 9 -22 -3 -8 -2 -15 3 -15 5 0 15 -21 22
-48 6 -26 13 -51 15 -57 9 -28 18 -52 27 -68 5 -10 7 -22 4 -27 -4 -6 -1 -10
6 -10 6 0 9 -8 6 -20 -3 -11 -1 -20 4 -20 5 0 9 -8 9 -18 0 -10 4 -22 9 -27 5
-6 11 -23 13 -40 2 -16 7 -33 11 -36 4 -3 9 -16 10 -27 1 -12 4 -22 8 -22 4 0
10 -15 14 -32 4 -18 9 -39 11 -46 2 -6 6 -18 7 -25 7 -23 18 -52 28 -70 5 -10
7 -22 4 -27 -4 -6 0 -13 8 -16 8 -3 13 -13 10 -24 -3 -10 0 -21 6 -24 5 -4 8
-13 4 -21 -3 -8 0 -15 6 -15 6 0 11 -10 11 -23 0 -13 3 -27 8 -31 4 -4 8 -12
8 -17 1 -5 3 -11 4 -14 3 -5 3 -6 15 -50 4 -16 10 -34 14 -40 3 -5 6 -12 7
-15 8 -41 28 -100 34 -100 5 0 7 -8 6 -17 -2 -9 4 -29 11 -45 8 -15 15 -37 16
-48 1 -11 5 -20 9 -20 4 0 8 -10 8 -23 0 -13 3 -27 7 -31 7 -7 14 -31 16 -58
1 -10 5 -18 9 -18 4 0 8 -11 8 -25 0 -14 4 -25 9 -25 5 0 12 -18 16 -40 4 -22
11 -42 15 -45 5 -3 7 -12 3 -20 -3 -8 0 -15 6 -15 6 0 11 -11 11 -25 0 -14 4
-25 10 -25 5 0 7 -7 4 -15 -4 -8 -2 -15 4 -15 6 0 9 -8 8 -18 -2 -9 1 -24 5
-32 13 -25 20 -46 38 -110 7 -25 17 -49 21 -55 5 -5 11 -27 15 -48 4 -20 11
-40 16 -43 5 -3 7 -10 3 -15 -3 -6 2 -19 12 -30 13 -15 14 -19 3 -19 -10 0
-11 -2 -2 -8 6 -4 14 -19 16 -32 2 -14 9 -38 15 -53 7 -16 12 -37 12 -47 0
-10 5 -22 10 -25 6 -4 8 -10 5 -15 -3 -5 0 -12 6 -15 5 -4 8 -13 5 -20 -3 -8
-1 -15 4 -17 5 -2 11 -14 12 -28 2 -14 5 -27 8 -30 8 -8 50 -137 50 -154 0 -9
5 -16 10 -16 6 0 9 -3 8 -7 -1 -5 5 -28 12 -53 17 -58 16 -53 23 -70 7 -19 31
-93 32 -100 0 -3 3 -9 6 -15 4 -5 10 -23 14 -40 9 -34 9 -34 17 -55 4 -8 9
-24 14 -35 4 -11 6 -24 5 -29 -1 -4 4 -14 10 -22 7 -8 9 -17 6 -21 -4 -3 -1
-13 5 -21 7 -8 14 -26 16 -40 2 -15 7 -31 11 -37 9 -11 25 -66 23 -77 -1 -5 3
-8 9 -8 6 0 9 -7 6 -15 -4 -8 -2 -17 3 -20 6 -4 10 -17 10 -31 0 -13 4 -24 8
-24 9 0 11 -9 15 -55 1 -14 8 -25 15 -25 7 0 11 -4 7 -9 -3 -5 -1 -20 4 -33
20 -50 24 -63 22 -75 -1 -7 3 -13 9 -13 6 0 10 -6 9 -12 -2 -12 2 -24 19 -68
3 -8 6 -19 7 -25 0 -5 4 -16 8 -23 5 -6 5 -17 2 -22 -3 -5 -2 -10 3 -10 8 0
23 -41 27 -75 0 -5 8 -25 18 -44 9 -18 14 -37 12 -42 -3 -4 -1 -10 5 -14 5 -3
10 -17 10 -30 0 -13 5 -27 10 -30 6 -4 8 -11 5 -16 -4 -5 -1 -9 5 -9 7 0 10
-7 7 -15 -4 -8 -2 -17 3 -20 6 -4 10 -16 10 -29 0 -12 5 -27 12 -34 7 -7 8
-12 4 -12 -5 0 -3 -7 4 -15 7 -8 10 -21 7 -29 -3 -8 1 -17 8 -20 8 -3 12 -14
10 -26 -2 -11 0 -20 6 -20 5 0 9 -9 9 -19 0 -11 5 -23 10 -26 6 -4 8 -11 4
-16 -3 -5 -1 -15 4 -22 6 -7 11 -16 12 -22 3 -14 9 -32 17 -52 3 -10 7 -22 8
-28 0 -5 6 -23 13 -38 7 -16 12 -37 12 -48 0 -10 5 -19 11 -19 6 0 9 -6 6 -13
-3 -7 4 -30 14 -51 10 -21 16 -42 14 -47 -3 -4 -1 -10 5 -14 5 -3 10 -17 10
-31 0 -13 4 -24 10 -24 5 0 7 -7 4 -15 -4 -8 -2 -15 3 -15 5 0 10 -6 10 -12 0
-17 70 -220 87 -253 8 -15 13 -34 12 -43 -2 -8 4 -24 13 -34 8 -10 16 -28 18
-40 6 -52 16 -88 23 -88 5 0 6 -9 3 -20 -3 -12 0 -20 7 -20 6 0 10 -10 8 -23
-2 -12 4 -29 12 -37 9 -8 17 -24 18 -35 3 -43 15 -85 24 -85 5 0 7 -4 4 -8 -3
-5 2 -21 10 -36 7 -16 14 -37 14 -47 0 -10 5 -21 11 -24 5 -4 8 -12 6 -18 -2
-7 4 -31 14 -54 10 -24 16 -43 12 -43 -3 0 0 -7 7 -15 7 -8 10 -22 6 -30 -3
-9 0 -15 9 -15 8 0 12 -8 10 -20 -2 -11 0 -20 5 -20 5 0 7 -9 5 -20 -2 -11 0
-20 4 -20 7 0 16 -28 22 -68 0 -4 4 -11 9 -17 4 -5 11 -27 15 -48 4 -20 11
-40 16 -43 5 -3 9 -14 9 -25 0 -10 5 -19 11 -19 5 0 7 -5 4 -10 -4 -6 -1 -17
5 -25 6 -8 9 -18 6 -24 -4 -5 0 -16 8 -24 11 -11 12 -17 3 -26 -8 -8 -7 -11 6
-11 9 0 17 -5 17 -11 0 -5 -4 -8 -9 -5 -5 4 -1 -12 10 -33 10 -22 19 -49 19
-61 0 -11 5 -20 11 -20 6 0 9 -6 6 -12 -2 -7 4 -32 14 -55 10 -24 16 -43 12
-43 -3 0 -1 -6 4 -13 8 -10 22 -48 27 -77 1 -3 5 -11 9 -17 5 -7 5 -17 2 -23
-3 -5 -1 -10 4 -10 6 0 11 -11 11 -25 0 -14 5 -25 11 -25 6 0 9 -7 5 -15 -3
-8 2 -21 10 -30 9 -9 11 -15 4 -15 -7 0 -5 -7 4 -16 9 -8 14 -20 10 -25 -3 -6
0 -17 7 -25 6 -8 9 -17 5 -21 -3 -3 1 -15 11 -25 9 -10 13 -18 9 -18 -3 0 1
-16 9 -36 8 -20 15 -45 15 -55 0 -11 4 -19 10 -19 5 0 7 -6 4 -14 -3 -8 -1
-17 5 -21 6 -3 11 -14 11 -23 0 -9 7 -30 15 -46 8 -15 13 -32 10 -36 -3 -5 0
-14 7 -22 7 -7 14 -22 16 -33 1 -11 3 -28 4 -38 1 -9 6 -17 10 -17 4 0 8 -9 8
-20 0 -11 3 -20 8 -20 6 0 10 -17 15 -72 1 -9 5 -14 9 -12 4 3 8 -4 8 -15 0
-11 5 -23 10 -26 6 -4 10 -12 9 -18 -1 -7 1 -21 5 -32 5 -11 10 -27 14 -35 3
-8 4 -21 3 -28 -1 -8 3 -20 10 -28 6 -8 8 -14 4 -14 -4 0 -1 -7 6 -16 14 -17
20 -38 20 -66 0 -10 4 -20 10 -23 5 -4 9 -16 9 -29 0 -12 3 -26 8 -30 4 -4 7
-11 8 -14 1 -16 28 -98 35 -107 4 -5 10 -27 14 -48 4 -20 11 -40 16 -43 5 -3
7 -10 4 -15 -4 -5 1 -16 9 -24 8 -9 13 -22 10 -29 -3 -8 -1 -17 5 -20 6 -4 8
-13 4 -21 -3 -8 0 -15 7 -15 7 0 10 -8 7 -20 -3 -11 -1 -18 4 -14 5 3 9 -3 9
-14 0 -10 11 -46 24 -80 14 -35 25 -65 26 -67 9 -50 14 -65 21 -65 5 0 6 -6 3
-14 -3 -8 0 -17 5 -21 6 -3 9 -10 6 -15 -3 -5 -1 -11 5 -15 5 -3 10 -17 10
-30 0 -13 5 -27 11 -30 6 -4 8 -13 5 -21 -3 -8 -1 -14 4 -14 6 0 10 -11 10
-25 0 -14 4 -25 10 -25 5 0 7 -6 4 -14 -3 -8 -1 -17 5 -21 6 -3 11 -17 11 -31
0 -15 6 -24 15 -24 9 0 15 -6 13 -13 -2 -6 7 -23 20 -37 41 -46 52 -60 50 -63
-5 -6 50 -67 60 -67 5 0 17 -9 27 -20 10 -11 22 -20 28 -20 5 0 17 -8 26 -17
23 -25 79 -55 90 -48 5 3 12 1 16 -5 3 -5 22 -10 41 -10 19 0 34 -4 34 -8 0
-4 8 -8 18 -8 9 -1 33 -4 52 -8 19 -4 47 -10 63 -13 15 -3 30 -9 33 -14 7 -11
234 -12 234 -1 0 5 700 9 1556 9 1261 0 1557 2 1564 13 4 7 13 9 19 6 6 -4 17
-4 23 0 7 5 19 9 28 11 32 5 76 15 90 20 8 4 22 7 30 8 8 1 22 4 30 8 8 3 26
8 40 11 14 3 34 14 45 24 11 10 28 21 38 25 9 3 17 11 17 17 0 5 5 10 12 10
14 0 112 93 116 111 2 8 8 15 13 17 5 2 9 9 9 15 0 7 12 23 25 36 14 13 25 28
26 35 0 6 3 20 6 31 2 11 7 35 10 53 3 17 9 32 13 32 4 0 8 10 9 23 3 55 7 77
14 77 4 0 7 13 7 29 0 16 6 31 13 34 9 3 9 7 -1 20 -8 9 -12 22 -9 29 2 7 -2
25 -10 41 -7 15 -11 27 -7 27 4 0 1 6 -5 14 -6 7 -9 20 -5 29 3 8 1 18 -5 22
-6 3 -11 19 -11 35 0 16 -4 31 -9 34 -5 3 -7 19 -6 36 1 16 -1 30 -5 30 -9 0
-23 39 -21 57 1 7 -3 13 -9 13 -6 0 -10 6 -8 12 3 19 -12 58 -22 58 -5 0 -7 9
-5 20 2 11 0 22 -6 25 -5 4 -9 15 -9 26 0 10 -5 19 -10 19 -6 0 -9 3 -9 8 1 4
0 10 -1 15 -1 4 -3 10 -4 15 -1 4 -10 25 -20 47 -9 22 -20 52 -23 68 -3 15 -9
27 -13 27 -4 0 -7 8 -7 17 0 24 -14 63 -22 63 -4 0 -7 8 -8 18 -1 9 -10 35
-19 57 -10 22 -17 45 -16 52 2 6 -2 14 -8 18 -5 3 -10 15 -10 26 0 10 -4 19
-10 19 -5 0 -7 7 -4 15 4 8 1 15 -5 15 -7 0 -11 6 -10 12 1 7 -3 26 -9 41 -7
16 -12 35 -12 43 0 8 -4 14 -10 14 -5 0 -10 9 -10 19 0 11 -4 22 -10 26 -5 3
-7 12 -3 20 3 8 0 15 -7 15 -6 0 -9 4 -5 9 3 5 1 12 -5 16 -5 3 -10 15 -10 26
0 10 -5 19 -11 19 -5 0 -8 4 -5 9 5 8 -1 29 -29 96 -5 11 -9 25 -10 30 0 6 -6
20 -13 32 -7 13 -10 23 -6 23 3 0 1 6 -5 13 -6 8 -8 17 -4 20 3 4 1 7 -5 7 -7
0 -12 9 -12 19 0 11 -4 22 -10 26 -5 3 -7 12 -3 20 3 8 0 15 -7 15 -7 0 -10 7
-6 15 3 8 1 15 -4 15 -6 0 -10 9 -10 20 0 11 -5 20 -10 20 -6 0 -10 6 -9 12 4
21 -12 68 -23 68 -5 0 -7 4 -3 10 3 5 1 17 -4 27 -12 22 -36 86 -36 95 0 3 -3
10 -7 14 -5 4 -8 16 -8 26 0 10 -5 18 -11 18 -5 0 -8 4 -5 9 3 4 -1 16 -8 27
-8 10 -12 24 -9 31 3 7 0 13 -7 13 -6 0 -8 5 -5 10 4 6 2 16 -3 23 -5 7 -13
27 -17 45 -3 18 -10 30 -15 27 -5 -3 -7 3 -6 12 2 10 -1 25 -5 33 -12 24 -22
54 -21 63 1 4 -3 7 -9 7 -6 0 -9 7 -6 15 4 8 2 17 -3 20 -6 4 -10 15 -10 26 0
10 -5 19 -11 19 -5 0 -8 4 -4 9 3 5 -1 15 -8 23 -8 7 -13 21 -11 31 1 9 -2 17
-7 17 -6 0 -8 4 -5 9 3 5 -2 24 -11 42 -18 36 -24 53 -26 82 -1 9 -4 17 -7 17
-3 0 -12 17 -19 37 -8 21 -18 49 -24 63 -6 14 -11 30 -12 35 0 6 -7 24 -15 40
-16 36 -21 54 -23 78 -1 9 -5 17 -8 17 -7 0 -23 38 -21 50 0 3 -4 11 -10 17
-6 7 -8 20 -4 28 3 9 -1 18 -9 21 -8 3 -11 12 -8 21 5 12 3 14 -7 8 -10 -6
-12 -3 -8 13 3 12 2 22 -3 24 -5 2 -11 12 -14 23 -5 27 -29 89 -35 95 -3 3 -5
12 -5 20 1 8 -6 26 -14 39 -8 13 -17 30 -18 38 -7 33 -9 39 -15 48 -3 6 -9 25
-13 42 -3 18 -11 33 -17 33 -6 0 -8 9 -5 20 3 10 0 21 -6 23 -6 2 -12 12 -13
23 -4 33 -30 95 -37 88 -3 -4 -4 4 -2 16 2 13 -4 33 -15 47 -10 13 -16 31 -13
39 3 8 0 14 -7 14 -6 0 -9 3 -6 8 2 4 -3 23 -12 42 -17 38 -19 45 -21 61 0 5
-7 7 -13 3 -10 -5 -10 -4 -1 6 12 14 6 43 -8 35 -4 -3 -6 3 -4 14 2 10 -3 27
-10 38 -8 10 -15 28 -15 41 0 12 -5 22 -10 22 -6 0 -10 6 -9 12 1 7 -4 27 -11
43 -7 17 -14 32 -15 35 -1 3 -7 24 -14 48 -6 23 -16 42 -22 42 -6 0 -8 9 -4
20 4 11 2 20 -4 20 -6 0 -11 10 -11 23 0 12 -7 31 -15 41 -8 11 -15 28 -15 38
0 10 -4 18 -10 18 -5 0 -7 7 -3 15 3 9 -2 23 -10 33 -9 9 -18 29 -20 42 -3 14
-13 43 -22 65 -10 22 -17 44 -16 49 1 4 -4 14 -10 22 -6 8 -8 14 -4 14 4 0 3
6 -2 13 -10 11 -26 68 -23 76 1 2 -4 7 -11 12 -13 8 -21 31 -20 62 0 9 -5 17
-10 17 -6 0 -9 8 -7 18 1 9 -6 29 -16 44 -10 15 -15 32 -11 38 3 5 1 10 -4 10
-6 0 -11 11 -11 25 0 14 -5 25 -11 25 -6 0 -8 7 -5 16 4 10 2 13 -6 8 -8 -5
-9 0 -5 15 3 14 0 24 -9 28 -8 3 -11 9 -9 14 3 5 -2 23 -11 41 -16 30 -21 46
-26 86 -1 6 -5 12 -9 12 -7 0 -22 39 -20 54 1 4 -3 14 -10 22 -6 7 -8 18 -4
24 3 5 1 10 -4 10 -6 0 -11 7 -11 15 0 8 -5 15 -11 15 -5 0 -9 8 -8 18 2 16
-7 45 -30 97 -20 45 -40 105 -36 105 3 0 -1 13 -10 30 -8 16 -15 31 -14 32 1
2 -8 22 -20 45 -12 24 -19 43 -15 43 4 0 1 6 -5 14 -6 8 -11 18 -10 22 2 16
-13 54 -22 54 -5 0 -8 3 -7 8 2 9 -13 64 -21 77 -3 6 -6 12 -7 15 0 3 -7 19
-14 35 -7 17 -14 37 -16 45 -3 15 -5 24 -19 67 -4 13 -11 21 -15 18 -4 -2 -7
6 -6 18 1 12 -2 25 -7 28 -4 3 -9 16 -10 27 -1 12 -5 22 -10 22 -4 0 -5 5 -2
10 3 6 1 10 -5 10 -7 0 -10 7 -6 15 3 8 -1 21 -9 29 -8 7 -11 16 -8 19 3 4 -2
18 -11 31 -9 14 -16 34 -16 46 0 11 -5 20 -11 20 -5 0 -8 4 -4 10 5 8 -10 45
-25 60 -3 3 -6 14 -8 25 -3 25 -4 27 -29 93 -3 9 -5 20 -5 25 1 4 -3 7 -9 7
-6 0 -9 6 -6 14 3 7 0 19 -6 25 -7 7 -12 17 -13 24 -2 24 -16 57 -24 57 -5 0
-6 9 -3 20 3 12 0 20 -6 20 -7 0 -11 6 -10 12 1 7 -4 27 -11 43 -7 17 -14 32
-15 35 -18 61 -30 90 -37 90 -4 0 -8 9 -8 20 0 11 -7 37 -16 58 -9 20 -17 46
-20 56 -2 11 -8 22 -14 26 -6 4 -8 14 -4 23 3 9 2 17 -4 17 -6 0 -14 15 -17
33 -4 17 -12 37 -17 44 -5 7 -7 17 -3 23 3 5 1 10 -5 10 -6 0 -9 4 -5 9 3 5 1
12 -5 16 -6 4 -8 11 -5 16 4 5 1 9 -5 9 -6 0 -8 5 -5 10 3 6 1 10 -4 10 -6 0
-11 10 -11 23 0 12 -9 42 -21 66 -11 25 -17 51 -15 58 3 7 -1 13 -10 13 -10 0
-14 6 -11 15 4 8 2 17 -4 21 -6 3 -8 12 -5 20 3 8 0 14 -7 14 -7 0 -13 8 -14
18 -1 9 -4 26 -6 37 -3 11 -6 26 -6 33 -1 7 -5 10 -11 7 -9 -5 -15 23 -11 48
0 4 -4 7 -9 7 -6 0 -10 11 -10 24 0 14 -5 28 -10 31 -6 4 -8 10 -5 15 3 5 1
11 -5 15 -6 4 -8 10 -5 15 3 4 -2 13 -10 20 -8 7 -12 16 -9 22 3 5 0 15 -6 23
-6 8 -9 18 -6 23 3 5 -3 17 -13 26 -11 10 -17 25 -14 37 3 11 0 19 -6 19 -7 0
-10 4 -7 9 6 9 -16 61 -26 61 -4 0 -5 9 -3 20 2 11 0 20 -6 20 -5 0 -9 10 -9
23 0 13 -5 28 -10 33 -6 6 -13 21 -15 35 -3 13 -9 25 -14 27 -5 2 -7 12 -4 22
3 11 1 20 -5 20 -9 0 -36 80 -30 90 2 3 -7 19 -19 36 -12 17 -20 34 -16 37 3
4 0 13 -7 22 -7 8 -9 15 -5 15 4 0 3 6 -2 13 -11 13 -27 67 -25 80 1 4 -3 7
-8 7 -6 0 -10 9 -10 20 0 11 -5 20 -11 20 -6 0 -8 9 -4 20 4 12 2 20 -5 20 -6
0 -9 4 -6 9 3 5 -1 14 -9 21 -8 7 -12 16 -10 21 3 4 2 16 -4 26 -10 21 -34 76
-36 83 -6 33 -31 100 -36 100 -4 0 -10 18 -14 40 -4 22 -11 40 -15 40 -5 0 -7
9 -5 20 2 11 1 20 -3 20 -4 0 -13 12 -19 27 -10 21 -10 28 0 35 8 5 9 8 0 8
-6 0 -17 16 -23 35 -6 19 -16 35 -22 35 -6 0 -7 7 -4 16 4 10 -1 25 -10 35
-12 14 -13 19 -4 19 9 0 8 5 -4 19 -10 11 -19 25 -20 33 -4 27 -29 93 -37 103
-5 5 -9 19 -9 32 0 13 -5 23 -11 23 -6 0 -9 6 -6 14 3 8 -1 20 -8 26 -8 7 -13
15 -10 19 2 4 -2 20 -10 35 -8 15 -14 30 -13 34 1 4 -6 22 -15 39 -10 18 -18
36 -18 40 -2 11 -9 34 -22 68 -7 17 -12 32 -13 35 -1 3 -5 14 -8 25 -4 11 -6
24 -6 29 1 5 -2 12 -7 15 -7 5 -28 55 -37 86 -5 18 -17 49 -32 83 -8 18 -12
38 -9 43 4 5 1 9 -4 9 -6 0 -11 6 -11 14 0 7 -7 27 -15 42 -8 16 -15 37 -15
46 0 9 -4 19 -10 23 -5 3 -7 12 -3 20 3 9 -1 15 -9 15 -7 0 -14 8 -15 18 -2
25 -7 45 -16 60 -5 6 -5 12 -1 12 4 0 0 8 -9 18 -10 10 -15 21 -12 24 8 8 -16
58 -28 58 -5 0 -4 7 3 15 9 10 9 15 1 15 -6 0 -11 6 -11 13 0 17 -23 67 -32
67 -3 0 -4 9 -1 20 3 12 0 20 -7 20 -7 0 -10 7 -7 15 4 8 2 17 -4 21 -6 3 -8
12 -5 20 3 7 -2 20 -10 29 -8 8 -12 20 -8 26 4 7 3 9 -3 6 -7 -4 -14 8 -18 31
-4 20 -11 43 -17 50 -6 6 -7 12 -2 12 5 0 5 4 -1 8 -13 9 -68 161 -67 184 0
10 -3 18 -9 18 -5 0 -9 7 -9 15 0 8 -4 15 -9 15 -6 0 -9 8 -9 17 0 10 -5 32
-12 48 -7 17 -12 36 -11 44 1 8 -2 10 -10 5 -9 -5 -11 -1 -7 14 4 13 0 23 -9
26 -8 3 -11 10 -8 16 3 5 3 16 -2 23 -4 6 -8 17 -8 22 -1 6 -7 24 -15 40 -7
17 -14 35 -16 40 -9 32 -30 81 -38 86 -5 4 -6 13 -4 20 3 8 -4 27 -15 43 -12
16 -15 26 -8 21 8 -4 28 -9 45 -11 17 -2 51 -6 76 -10 25 -4 52 -8 60 -9 43
-6 125 -22 125 -25 0 -1 14 -3 30 -5 17 -2 45 -8 64 -14 18 -5 36 -10 40 -9 3
0 8 -1 11 -2 3 -1 13 -3 23 -6 9 -2 25 -6 35 -8 9 -3 19 -5 22 -7 3 -1 10 -3
15 -4 9 -1 91 -25 105 -30 3 -1 20 -6 38 -10 18 -4 35 -12 38 -16 3 -5 9 -7
14 -4 8 5 54 -12 103 -37 10 -5 22 -6 27 -3 5 3 12 0 17 -7 7 -12 22 -17 61
-20 6 -1 12 -5 12 -9 0 -6 10 -10 45 -18 3 -1 26 -12 52 -26 26 -13 51 -21 55
-19 4 3 8 0 8 -5 0 -6 9 -11 19 -11 11 0 26 -7 35 -15 8 -8 21 -15 30 -15 8 0
22 -8 32 -17 10 -10 18 -17 18 -16 3 8 46 -11 46 -20 0 -6 3 -8 6 -4 3 3 23
-4 43 -17 20 -12 51 -29 69 -37 17 -8 32 -17 32 -21 0 -5 4 -8 10 -8 10 0 231
-137 240 -148 3 -4 17 -13 33 -21 15 -8 27 -18 27 -23 0 -4 6 -8 13 -8 8 0 22
-9 32 -20 10 -11 24 -20 32 -20 8 0 11 -4 8 -10 -3 -5 -1 -10 4 -10 6 0 19 -8
29 -18 10 -10 28 -25 40 -34 27 -18 80 -68 144 -136 26 -27 50 -47 53 -44 3 3
5 0 5 -7 0 -7 16 -29 35 -49 19 -20 38 -45 41 -55 3 -9 10 -15 15 -12 5 4 9
-1 9 -9 0 -9 5 -16 10 -16 6 0 10 -7 10 -15 0 -8 5 -15 10 -15 6 0 10 -7 10
-15 0 -8 4 -15 9 -15 6 0 25 -25 43 -55 18 -30 36 -55 40 -55 5 0 8 -5 8 -11
0 -6 14 -31 30 -56 17 -24 30 -50 30 -57 0 -7 9 -21 20 -31 11 -10 17 -22 14
-26 -3 -5 -1 -9 4 -9 9 0 18 -20 20 -44 0 -5 4 -12 9 -15 5 -3 20 -30 33 -59
13 -28 27 -52 31 -52 5 0 6 -7 3 -15 -4 -8 -1 -15 6 -15 6 0 8 -4 5 -10 -3 -5
-1 -10 4 -10 6 0 11 -8 11 -18 0 -10 4 -22 8 -27 5 -6 19 -37 32 -70 13 -33
27 -65 32 -71 4 -6 5 -14 1 -18 -4 -4 -3 -10 3 -14 13 -8 105 -268 107 -299 1
-13 5 -23 9 -23 4 0 8 -13 8 -30 0 -16 5 -30 11 -30 6 0 9 -7 6 -15 -4 -8 -1
-17 4 -21 6 -3 9 -15 6 -25 -3 -10 -1 -19 3 -21 5 -2 11 -14 13 -28 2 -14 7
-32 10 -40 10 -28 31 -125 29 -137 -2 -6 2 -14 8 -18 5 -3 10 -22 10 -41 0
-19 4 -34 8 -34 4 0 9 -15 10 -33 3 -37 7 -56 15 -77 3 -8 8 -31 11 -50 9 -59
16 -94 23 -120 8 -32 11 -53 29 -180 3 -25 10 -50 15 -56 5 -6 4 -15 -3 -22
-7 -7 -8 -12 -2 -12 5 0 10 -8 11 -17 1 -20 8 -74 18 -143 4 -25 8 -56 9 -70
1 -14 4 -29 7 -35 4 -5 5 -21 4 -35 -1 -14 2 -35 6 -47 6 -15 5 -23 -2 -23 -8
0 -8 -4 -2 -13 5 -6 11 -30 12 -52 3 -46 7 -78 11 -85 1 -3 3 -12 4 -20 0 -8
8 -15 16 -15 8 0 21 -4 28 -8 6 -5 12 -4 12 0 0 12 74 10 82 -2 5 -6 8 -6 8 1
0 12 29 12 48 0 6 -4 12 -3 12 1 0 5 18 9 40 8 22 0 40 -4 40 -8 0 -5 6 -5 12
-1 19 12 48 12 48 0 0 -7 3 -7 8 -1 9 13 42 16 42 4 0 -6 9 -5 20 1 19 10 20
18 10 65 -1 6 -1 15 0 20 6 30 4 81 -5 87 -6 5 -5 8 4 8 11 0 11 3 1 15 -9 10
-9 15 -1 15 11 0 11 27 -2 47 -4 6 -1 13 5 16 10 3 10 7 1 19 -7 8 -10 18 -6
22 11 11 10 90 -2 98 -6 5 -5 8 4 8 11 0 11 3 1 15 -7 8 -8 15 -3 15 13 0 11
73 -2 82 -6 5 -5 8 4 8 11 0 11 3 1 15 -9 10 -9 15 -1 15 11 0 11 27 -2 47 -4
6 -1 13 5 16 10 3 10 7 0 19 -7 9 -9 19 -4 22 11 6 9 36 -3 55 -6 10 -4 12 4
7 15 -10 11 25 -4 36 -6 5 -6 8 2 8 11 0 11 7 3 45 -1 6 -1 15 0 20 6 29 4
282 -2 296 -4 9 -4 19 -1 23 11 10 9 286 -2 290 -5 3 -4 5 4 5 11 1 11 4 1 16
-9 10 -9 15 -1 15 11 0 11 27 -2 47 -4 6 -1 13 5 16 10 3 10 7 1 19 -7 8 -10
18 -6 22 11 11 10 90 -2 98 -6 5 -5 8 4 8 11 0 11 3 1 15 -7 8 -8 15 -3 15 13
0 11 73 -2 82 -6 5 -5 8 4 8 11 0 11 3 1 15 -9 10 -9 15 -1 15 11 0 11 27 -2
47 -4 6 -1 13 5 16 10 3 10 7 0 19 -7 9 -9 19 -4 22 11 6 9 36 -3 55 -6 10 -4
12 4 7 15 -10 11 25 -4 36 -6 5 -6 8 2 8 11 0 11 7 3 45 -1 6 -1 15 0 20 6 29
4 282 -2 296 -4 9 -4 19 -1 23 11 10 9 286 -2 290 -5 3 -4 5 4 5 11 1 11 4 1
16 -9 10 -9 15 -1 15 11 0 11 27 -2 47 -4 6 -1 13 5 16 10 3 10 7 1 19 -7 8
-10 18 -6 22 11 11 10 90 -2 98 -6 5 -5 8 4 8 11 0 11 3 1 15 -7 8 -8 15 -3
15 13 0 11 73 -2 82 -6 5 -5 8 4 8 11 0 11 3 1 15 -9 10 -9 15 -1 15 11 0 11
27 -2 47 -4 6 -1 13 5 16 10 3 10 7 0 19 -7 9 -9 19 -4 22 11 6 9 36 -3 55 -6
10 -4 12 4 7 15 -10 11 25 -4 36 -6 5 -6 8 2 8 11 0 11 7 3 45 -1 6 -1 15 0
20 6 29 4 282 -2 296 -4 9 -4 19 -1 23 11 10 9 286 -2 290 -5 3 -4 5 4 5 11 1
11 4 1 16 -9 10 -9 15 -1 15 11 0 11 27 -2 47 -4 6 -1 13 5 16 10 3 10 7 1 19
-7 8 -10 18 -6 22 11 11 10 90 -2 98 -6 5 -5 8 4 8 11 0 11 3 1 15 -7 8 -8 15
-3 15 13 0 11 73 -2 82 -6 5 -5 8 4 8 11 0 11 3 1 15 -9 10 -9 15 -1 15 11 0
11 27 -2 47 -4 6 -1 13 5 16 10 3 10 7 0 19 -7 9 -9 19 -4 22 11 6 9 36 -3 55
-6 10 -4 12 4 7 15 -10 11 25 -4 36 -6 5 -6 8 2 8 11 0 11 7 3 45 -1 6 -1 15
0 20 6 29 4 282 -2 296 -4 9 -4 19 -1 23 11 10 9 286 -2 290 -5 3 -4 5 4 5 11
1 11 4 1 16 -9 10 -9 15 -1 15 11 0 11 27 -2 47 -4 6 -1 13 5 16 10 3 10 7 1
19 -7 8 -10 18 -6 22 11 11 10 90 -2 98 -6 5 -5 8 4 8 11 0 11 3 1 15 -7 8 -8
15 -3 15 13 0 11 73 -2 82 -6 5 -5 8 4 8 11 0 11 3 1 15 -9 10 -9 15 -1 15 11
0 11 27 -2 47 -4 6 -1 13 5 16 10 3 10 7 0 19 -7 9 -9 19 -4 22 11 6 9 36 -3
55 -6 10 -4 12 4 7 15 -10 11 25 -4 36 -6 5 -6 8 2 8 11 0 11 7 3 45 -1 6 -1
12 0 15 7 20 3 371 -5 374 -5 3 -4 5 4 5 11 1 11 4 1 16 -7 8 -8 15 -3 15 13
0 11 73 -2 82 -6 5 -5 8 4 8 11 0 11 3 1 15 -9 11 -9 15 -1 15 12 0 9 40 -5
61 -4 7 -3 9 3 6 13 -8 11 86 -2 95 -6 5 -5 8 4 8 11 0 11 3 1 15 -9 10 -9 15
-1 15 11 0 11 27 -2 47 -4 6 -1 13 5 16 10 3 10 7 0 19 -7 9 -9 19 -4 22 11 6
9 36 -3 55 -5 10 -4 12 4 7 11 -7 11 2 1 49 -1 6 -1 12 0 15 7 20 3 291 -5
294 -5 3 -4 5 4 5 11 1 11 4 1 16 -9 10 -9 15 -1 15 11 0 11 27 -2 47 -4 6 -1
13 5 16 10 3 10 7 1 19 -7 8 -10 18 -6 22 11 11 10 90 -2 98 -6 5 -5 8 4 8 11
0 11 3 1 15 -7 8 -8 15 -3 15 13 0 11 73 -2 82 -6 5 -5 8 4 8 11 0 11 3 1 15
-9 10 -9 15 -1 15 11 0 11 27 -2 47 -4 6 -1 13 5 16 10 3 10 7 0 19 -7 9 -9
19 -4 22 11 6 9 36 -3 55 -6 10 -4 12 4 7 15 -10 11 25 -4 36 -6 5 -6 8 2 8
11 0 10 30 -2 49 -3 5 -2 12 2 14 10 6 9 260 -1 275 -3 6 0 12 6 15 10 3 10 7
1 17 -8 9 -9 19 -2 32 5 10 7 23 4 28 -4 6 -91 10 -221 10 l-214 0 -1 -22 c-1
-23 -4 -47 -15 -118 -3 -19 -7 -55 -9 -80 -2 -25 -4 -45 -5 -45 -2 0 -4 -9 -5
-20 -2 -11 -6 -38 -9 -60 -4 -22 -7 -55 -8 -72 0 -18 -4 -33 -8 -33 -4 0 -6
-16 -5 -35 1 -19 -1 -35 -5 -35 -3 0 -7 -12 -8 -27 -3 -32 -9 -68 -13 -68 -1
0 -3 -13 -4 -30 -2 -16 -4 -30 -5 -30 -3 0 -7 -24 -12 -62 -1 -13 -5 -23 -9
-23 -4 0 -6 -8 -4 -17 1 -10 -1 -27 -6 -39 -4 -11 -10 -36 -13 -55 -3 -19 -10
-49 -15 -67 -5 -18 -10 -34 -11 -37 0 -3 -2 -10 -4 -17 -3 -11 -43 -154 -61
-218 -2 -8 -10 -36 -18 -62 -8 -26 -12 -49 -9 -52 3 -4 1 -6 -5 -6 -10 0 -29
-64 -25 -82 1 -5 -3 -8 -8 -8 -6 0 -10 -6 -10 -14 0 -8 -10 -36 -22 -63 -11
-26 -22 -52 -23 -58 -1 -11 -8 -26 -36 -92 -11 -23 -19 -47 -19 -53 0 -6 -4
-9 -8 -6 -7 4 -11 -10 -14 -51 -1 -7 -5 -13 -10 -13 -4 0 -8 -7 -8 -16 0 -9
-5 -12 -12 -8 -6 4 -8 3 -5 -3 6 -9 -51 -131 -75 -160 -5 -7 -7 -17 -3 -23 3
-5 -1 -10 -10 -10 -9 0 -14 -4 -10 -9 3 -5 0 -13 -5 -16 -12 -7 -29 -45 -26
-57 0 -4 -6 -13 -15 -20 -9 -7 -25 -29 -35 -48 -11 -19 -22 -37 -25 -40 -3 -3
-14 -20 -24 -37 -11 -18 -23 -33 -28 -33 -4 0 -5 -4 -2 -10 3 -5 1 -10 -5 -10
-6 0 -14 -8 -17 -17 -4 -10 -11 -22 -15 -28 -5 -5 -20 -23 -33 -40 -14 -16
-25 -33 -25 -37 0 -3 -14 -20 -31 -37 -17 -17 -27 -31 -22 -31 4 0 3 -4 -2 -8
-6 -4 -35 -36 -65 -72 -30 -35 -78 -88 -106 -117 -29 -28 -49 -54 -46 -57 3
-4 0 -6 -7 -6 -6 0 -36 -25 -66 -55 -29 -30 -56 -55 -60 -55 -3 0 -18 -12 -33
-28 -15 -15 -43 -38 -62 -52 -19 -14 -47 -35 -62 -48 -14 -13 -30 -23 -34 -22
-4 1 -11 -5 -16 -14 -5 -9 -16 -16 -23 -16 -8 0 -15 -5 -15 -11 0 -5 -4 -7
-10 -4 -5 3 -10 2 -10 -4 0 -5 -26 -24 -57 -42 -32 -18 -60 -36 -63 -39 -3 -4
-26 -17 -52 -29 -27 -13 -50 -27 -54 -32 -3 -5 -9 -7 -14 -4 -4 2 -18 -4 -31
-14 -25 -19 -68 -37 -81 -33 -5 1 -8 -2 -8 -7 0 -8 -34 -21 -54 -20 -5 1 -12
-3 -15 -9 -9 -13 -178 -72 -185 -65 -3 4 -6 1 -6 -6 0 -7 -4 -10 -9 -6 -5 3
-12 1 -15 -4 -6 -8 -73 -26 -88 -23 -5 1 -8 -2 -8 -7 0 -4 -10 -7 -22 -7 -13
1 -28 -1 -34 -6 -6 -4 -23 -9 -38 -10 -14 -1 -26 -5 -26 -8 0 -3 -12 -7 -27
-8 -15 -1 -29 -5 -32 -10 -3 -4 -19 -8 -36 -9 -16 -1 -43 -4 -60 -8 -16 -4
-40 -7 -52 -8 -13 -1 -23 -5 -23 -8 0 -3 -11 -5 -25 -4 -14 2 -25 0 -25 -4 0
-5 -16 -7 -35 -6 -19 1 -35 -1 -35 -5 0 -3 -19 -6 -42 -7 -39 -2 -83 -9 -83
-13 0 -1 -27 -4 -60 -5 -33 -2 -60 -4 -60 -5 0 -2 -20 -4 -45 -5 -25 -2 -67
-6 -95 -9 -27 -4 -103 -7 -167 -9 -65 -1 -118 -5 -118 -9 0 -3 -9 -4 -20 -1
-10 3 -19 8 -18 12 1 3 -6 24 -16 46 -10 22 -19 48 -21 57 -2 9 -9 27 -16 40
-7 13 -12 27 -11 32 2 4 -2 14 -9 22 -6 8 -8 22 -5 31 4 10 4 14 0 10 -9 -8
-36 42 -29 53 3 5 -2 13 -11 18 -12 7 -13 11 -5 17 9 5 8 12 -5 26 -9 10 -13
19 -8 19 5 0 4 4 -3 8 -6 4 -14 19 -17 34 -2 14 -9 36 -16 47 -6 12 -8 26 -5
31 3 6 1 10 -4 10 -6 0 -11 9 -11 20 0 11 -5 20 -11 20 -5 0 -7 5 -4 10 4 6 1
18 -6 26 -7 9 -14 23 -15 32 -4 27 -38 116 -47 123 -5 3 -8 8 -7 10 1 4 -6 28
-18 59 -3 8 -4 18 -4 22 1 4 -7 22 -17 39 -11 17 -17 38 -14 45 3 8 0 14 -7
14 -7 0 -10 8 -7 20 3 11 1 18 -4 14 -5 -3 -9 4 -9 15 0 12 -4 21 -9 21 -6 0
-8 9 -6 20 2 11 1 20 -3 20 -6 0 -27 52 -35 86 -2 7 -8 18 -15 26 -6 8 -9 18
-5 21 3 4 2 12 -4 19 -5 7 -9 20 -8 28 0 8 -5 21 -12 28 -7 7 -13 22 -13 32 0
10 -4 21 -9 24 -5 3 -12 22 -15 41 -4 19 -12 35 -18 35 -5 0 -8 7 -5 15 4 8 2
17 -3 20 -6 4 -10 17 -10 31 0 13 -5 24 -11 24 -5 0 -7 5 -4 10 3 6 1 10 -5
10 -7 0 -10 7 -7 15 4 8 2 17 -3 20 -6 4 -10 15 -10 26 0 10 -4 19 -8 19 -6 0
-32 73 -36 102 -1 3 -4 10 -8 14 -5 4 -8 18 -8 31 0 12 -5 23 -11 23 -5 0 -7
5 -4 10 3 6 1 10 -6 10 -6 0 -9 8 -6 20 3 11 1 20 -4 20 -5 0 -9 9 -9 19 0 11
-5 23 -10 26 -6 4 -8 10 -5 15 3 5 1 11 -5 15 -5 3 -10 15 -10 26 0 10 -5 19
-11 19 -6 0 -8 9 -4 20 3 11 2 20 -4 20 -9 0 -19 21 -28 58 -2 6 -4 18 -6 25
-9 36 -19 57 -28 57 -5 0 -8 3 -7 8 5 14 -25 102 -34 102 -6 0 -8 6 -5 14 3 8
0 22 -8 32 -7 10 -11 24 -8 31 3 7 0 13 -7 13 -7 0 -10 7 -6 15 3 8 2 15 -3
15 -10 0 -25 46 -24 73 0 9 -3 17 -8 17 -4 0 -10 14 -14 30 -4 17 -11 30 -17
30 -6 0 -8 7 -4 15 3 8 -1 20 -8 27 -7 7 -11 19 -8 27 2 7 -1 17 -7 21 -7 4
-13 19 -15 34 -1 15 -8 32 -14 38 -6 6 -8 17 -5 24 3 8 0 14 -7 14 -6 0 -8 5
-5 10 3 6 2 10 -3 10 -8 0 -21 42 -22 65 0 3 -7 20 -17 38 -9 17 -16 38 -15
45 2 6 -2 12 -9 12 -6 0 -9 8 -6 20 3 11 1 20 -4 20 -5 0 -9 9 -9 19 0 11 -5
23 -10 26 -6 4 -8 11 -5 16 4 5 1 9 -4 9 -6 0 -11 11 -11 24 0 14 -4 27 -10
31 -5 3 -7 12 -4 19 3 7 -2 19 -11 26 -8 7 -15 22 -15 35 0 12 -3 25 -7 29 -7
6 -32 70 -37 93 -1 7 -5 16 -9 19 -4 4 -7 16 -7 26 0 10 -5 18 -11 18 -5 0 -8
4 -4 9 3 5 1 12 -4 15 -4 3 -11 20 -15 38 -3 18 -13 47 -20 63 -20 41 -30 68
-27 78 1 4 -5 18 -14 30 -8 12 -15 29 -15 39 0 10 -4 18 -9 18 -6 0 -8 9 -6
20 2 11 0 22 -6 25 -5 4 -9 15 -9 26 0 10 -4 19 -10 19 -5 0 -7 7 -4 15 4 8 1
15 -5 15 -6 0 -11 9 -11 20 0 11 -4 20 -9 20 -6 0 -8 9 -6 20 2 11 -1 22 -6
25 -5 4 -7 10 -4 15 3 4 -2 11 -11 14 -8 3 -12 11 -9 16 4 6 1 17 -5 25 -6 8
-9 19 -6 24 4 5 2 12 -4 16 -5 3 -10 15 -10 26 0 10 -4 19 -8 19 -5 0 -15 25
-22 55 -7 30 -18 55 -23 55 -6 0 -7 3 -4 7 4 3 2 13 -5 20 -7 8 -13 22 -14 31
-4 27 -10 44 -29 87 -9 22 -18 45 -20 50 -9 42 -18 64 -25 60 -4 -2 -8 5 -8
18 0 12 -6 36 -13 52 -7 17 -12 33 -11 38 1 4 -3 7 -9 7 -6 0 -9 7 -6 15 4 8
2 17 -3 20 -6 4 -10 15 -10 26 0 10 -4 19 -9 19 -5 0 -8 8 -6 18 1 9 -6 29
-16 43 -10 14 -16 29 -12 32 3 4 0 13 -6 21 -7 8 -10 20 -6 26 3 5 1 10 -4 10
-6 0 -11 9 -11 20 0 11 -5 20 -10 20 -6 0 -10 6 -9 13 1 6 -1 21 -5 32 -5 11
-10 27 -14 35 -3 8 -4 18 -4 23 1 4 -3 7 -8 7 -6 0 -10 10 -10 23 0 13 -5 28
-12 35 -7 7 -9 12 -5 12 4 0 -2 17 -13 38 -10 20 -21 49 -24 64 -2 14 -13 39
-23 54 -10 16 -17 29 -15 31 5 6 -11 58 -21 72 -11 13 -16 28 -21 63 -1 9 -7
23 -14 31 -7 7 -9 17 -5 20 3 4 1 7 -6 7 -8 0 -11 8 -8 20 3 11 1 20 -4 20 -5
0 -9 9 -9 19 0 11 -5 23 -10 26 -6 4 -8 10 -5 15 3 4 -2 13 -10 20 -7 6 -11
18 -8 26 3 8 0 14 -7 14 -6 0 -8 5 -4 11 3 6 2 14 -4 18 -6 3 -12 18 -14 31
-2 14 -9 35 -16 48 -7 12 -10 22 -6 22 3 0 2 6 -3 13 -11 13 -27 67 -24 80 1
5 -3 6 -9 2 -9 -5 -15 15 -11 38 0 4 -4 7 -10 7 -6 0 -9 6 -6 14 3 7 2 17 -3
22 -6 7 -31 74 -35 94 -4 24 -18 50 -26 50 -5 0 -9 6 -7 13 2 12 -19 82 -31
102 -3 6 -6 17 -8 25 -1 8 -6 16 -11 18 -6 2 -8 12 -5 22 3 11 0 20 -6 20 -6
0 -10 3 -9 8 0 4 -2 15 -5 25 -25 64 -28 76 -30 100 -1 9 -5 17 -9 17 -4 0 -8
7 -8 15 0 8 -5 15 -12 15 -6 0 -9 3 -5 6 7 8 -21 90 -53 155 -5 10 -4 22 3 29
8 9 8 11 1 7 -7 -4 -16 5 -22 21 -6 15 -14 36 -18 47 -4 11 -8 22 -9 25 -8 30
-18 50 -25 50 -5 0 -7 7 -4 15 4 8 1 22 -6 30 -6 8 -9 19 -5 25 3 5 2 10 -4
10 -9 0 -21 26 -25 56 -1 7 -5 17 -9 20 -4 4 -7 16 -7 26 0 10 -4 18 -9 18 -6
0 -8 9 -6 19 2 11 -3 25 -11 32 -8 6 -14 21 -14 34 0 12 -3 25 -7 29 -6 5 -27
59 -37 91 -5 17 -17 49 -32 82 -8 17 -17 45 -20 62 -4 17 -10 34 -15 37 -5 2
-14 24 -21 47 -6 23 -12 44 -13 47 -1 3 -9 22 -18 42 -10 21 -18 45 -20 55 -1
10 -7 25 -12 33 -5 8 -10 20 -10 25 -1 6 -7 24 -14 40 -7 17 -15 42 -18 58 -3
15 -10 27 -15 27 -6 0 -8 6 -5 14 3 8 1 16 -4 18 -5 2 -11 13 -12 26 0 12 -5
22 -10 22 -5 0 -7 6 -4 13 2 6 -4 24 -14 38 -10 14 -16 29 -12 32 3 4 0 14 -8
23 -8 10 -13 19 -11 21 5 6 -10 53 -17 53 -4 0 -7 8 -8 18 -1 9 -7 31 -14 47
-7 17 -12 33 -11 38 1 4 -3 7 -9 7 -6 0 -9 7 -5 15 3 8 -2 21 -10 30 -8 8 -13
19 -9 24 3 5 1 12 -4 16 -5 3 -8 14 -6 25 2 11 0 20 -5 20 -8 0 -20 27 -26 55
-1 6 -9 28 -18 50 -10 22 -17 41 -17 42 0 1 -10 26 -21 55 -11 29 -22 63 -25
76 -3 12 -10 22 -15 22 -6 0 -8 7 -5 15 4 8 2 17 -4 20 -5 4 -7 10 -4 15 3 4
-1 10 -9 13 -9 4 -12 14 -9 26 3 12 1 21 -6 21 -7 0 -11 6 -9 13 3 18 -12 57
-22 57 -5 0 -7 9 -5 20 2 11 0 20 -4 20 -5 0 -11 14 -15 31 -3 17 -12 45 -20
62 -22 51 -29 71 -30 87 0 8 -6 21 -13 28 -7 7 -13 22 -13 32 0 10 -5 22 -10
25 -6 4 -10 12 -9 18 2 20 -13 57 -23 57 -5 0 -8 6 -7 13 2 12 -4 32 -24 77
-12 29 -11 25 -22 65 -4 17 -12 35 -17 42 -5 6 -11 24 -14 40 -3 15 -9 30 -15
31 -5 2 -7 7 -4 12 3 4 -2 21 -10 36 -8 16 -15 36 -15 45 0 9 -3 19 -7 23 -5
4 -8 11 -9 14 0 4 -4 16 -8 27 -12 32 -33 87 -47 125 -8 19 -14 37 -14 40 0 3
-6 15 -13 26 -6 12 -8 24 -5 28 3 3 1 6 -5 6 -7 0 -11 3 -10 8 1 4 -4 23 -11
42 -8 19 -13 39 -12 44 1 4 -6 14 -15 21 -12 8 -14 14 -5 19 8 5 5 16 -10 37
-16 23 -19 33 -10 42 9 9 250 12 936 12 509 0 925 -3 925 -7 0 -4 14 -3 30 2
19 5 30 5 30 -1 0 -6 5 -7 12 -3 13 8 78 12 78 4 0 -3 69 -6 153 -6 340 -3
456 -7 450 -17 -3 -5 3 -5 14 1 12 7 25 7 36 1 12 -7 17 -6 17 1 0 6 5 8 12 4
17 -11 139 -11 145 -1 3 4 10 4 16 -1 14 -10 73 -15 209 -16 53 -1 94 -4 92
-8 -3 -4 4 -7 13 -7 76 1 173 -5 173 -10 0 -3 28 -7 63 -7 61 -2 173 -11 232
-20 39 -6 86 -12 160 -19 33 -4 61 -10 63 -15 2 -5 16 -4 33 0 17 5 27 5 24 0
-3 -5 3 -9 12 -9 40 0 82 -7 89 -14 4 -4 22 -7 41 -7 18 0 33 -3 33 -7 0 -5
10 -9 23 -9 56 -4 87 -10 87 -17 0 -5 4 -6 9 -2 5 3 12 1 16 -4 3 -5 14 -8 25
-6 11 2 20 -1 20 -6 0 -6 6 -9 13 -6 6 2 35 -4 62 -13 28 -10 53 -18 57 -19 4
-1 13 -3 20 -5 11 -4 48 -13 78 -21 3 0 43 -14 90 -30 47 -16 90 -30 95 -31
27 -5 40 -9 45 -14 7 -7 73 -32 88 -33 6 0 12 -4 12 -9 0 -4 11 -8 24 -8 14 0
27 -4 31 -9 3 -5 19 -12 35 -16 17 -4 30 -10 30 -14 0 -4 6 -8 13 -8 8 0 52
-18 98 -40 46 -22 94 -44 107 -47 12 -4 22 -12 22 -17 0 -5 9 -9 19 -9 11 0
27 -7 35 -16 9 -8 16 -12 16 -8 0 4 9 -1 20 -11 11 -10 20 -15 20 -11 0 4 13
-2 29 -13 16 -12 34 -21 40 -21 6 0 11 -3 11 -8 0 -4 15 -13 33 -21 17 -8 47
-25 65 -39 17 -13 32 -20 32 -16 0 5 4 4 8 -2 4 -6 34 -28 67 -49 33 -21 62
-41 65 -44 3 -4 32 -24 65 -46 33 -22 75 -55 92 -72 18 -18 37 -33 42 -33 6 0
15 -8 20 -17 6 -10 11 -15 11 -12 0 9 97 -79 194 -177 90 -89 168 -174 161
-174 -2 0 6 -10 18 -23 34 -36 67 -77 62 -77 -5 0 19 -32 48 -62 9 -10 17 -20
17 -22 0 -5 66 -107 79 -122 5 -7 7 -15 4 -18 -4 -3 -1 -6 6 -6 7 0 9 -4 6
-10 -3 -5 -1 -10 4 -10 6 0 11 -7 11 -15 0 -8 3 -15 8 -15 4 0 18 -25 32 -55
14 -30 29 -55 33 -55 5 0 5 -4 2 -10 -3 -5 -1 -10 5 -10 6 0 9 -4 6 -9 -4 -5
-3 -11 1 -13 10 -4 47 -80 45 -90 -1 -5 3 -8 8 -8 5 0 10 -3 9 -7 -2 -16 14
-53 22 -53 5 0 8 -3 7 -7 -1 -5 11 -42 27 -83 16 -41 28 -78 27 -82 -1 -5 3
-8 9 -8 6 0 9 -7 5 -15 -3 -8 -2 -15 2 -15 4 0 12 -11 19 -25 6 -15 7 -22 1
-19 -6 4 -2 -5 7 -20 10 -14 14 -26 11 -26 -4 0 0 -13 9 -30 8 -16 15 -32 15
-35 1 -3 2 -10 5 -17 2 -7 9 -31 16 -53 7 -22 13 -44 14 -50 1 -5 4 -17 7 -25
9 -24 29 -94 31 -110 2 -8 6 -21 10 -28 5 -7 9 -26 9 -42 1 -17 4 -30 7 -30 5
0 15 -40 35 -145 1 -5 4 -14 7 -20 3 -5 6 -26 8 -45 1 -19 5 -37 9 -40 7 -5 8
-11 15 -81 2 -20 8 -42 12 -49 4 -7 9 -29 11 -49 4 -54 10 -102 19 -141 9 -39
12 -58 16 -112 2 -21 5 -38 8 -38 4 0 7 -19 8 -43 2 -58 8 -101 16 -114 4 -7
3 -14 -3 -18 -7 -4 -7 -12 0 -24 5 -10 7 -21 3 -24 -3 -3 -2 -14 2 -24 5 -10
9 -25 9 -33 1 -13 35 -15 244 -15 150 0 242 -4 242 -10 0 -5 6 -1 13 10 15 23
20 68 6 60 -5 -4 -9 -1 -9 4 0 6 5 11 10 11 12 0 9 38 -4 59 -7 10 -5 12 3 6
16 -9 12 42 -4 64 -7 11 -7 13 3 7 13 -8 17 15 5 28 -11 11 -12 37 -2 30 12
-7 7 35 -5 55 -6 9 -5 12 1 8 6 -4 10 11 10 39 0 29 -3 41 -8 32 -5 -7 -9 -8
-9 -2 0 6 3 14 7 18 13 13 13 49 1 64 -10 12 -10 14 -1 8 9 -5 12 0 11 18 -1
15 -6 26 -10 26 -4 0 -8 5 -8 11 0 5 4 8 9 5 5 -4 8 15 6 41 -2 27 -4 48 -5
48 -1 0 -3 8 -5 18 -2 9 0 15 5 12 12 -7 7 99 -5 107 -7 5 -7 8 0 8 6 0 11 17
12 37 2 27 -1 33 -7 23 -6 -9 -10 -10 -10 -3 0 6 5 15 10 18 8 5 7 12 -2 23
-7 9 -8 13 -2 9 8 -4 10 17 9 71 -1 42 -3 77 -5 77 -1 0 -3 8 -5 18 -2 9 1 15
6 11 10 -6 6 52 -4 63 -4 3 -7 11 -7 17 0 6 5 4 10 -4 8 -11 9 -9 8 13 -1 15
-7 27 -13 27 -5 0 -4 4 3 8 13 9 12 38 -2 61 -6 10 -5 12 2 7 16 -10 15 7 0
23 -10 11 -10 12 -1 7 9 -5 12 1 11 18 -1 15 -6 26 -10 26 -4 0 -8 5 -8 11 0
5 4 8 9 5 5 -4 8 15 6 41 -2 27 -4 48 -5 48 -1 0 -3 8 -5 18 -2 9 0 15 5 12
12 -7 7 99 -5 107 -6 5 -5 8 4 8 11 0 11 3 0 17 -9 11 -10 14 -2 9 9 -5 12 0
11 18 -1 15 -6 26 -10 26 -4 0 -8 5 -8 11 0 5 4 8 9 4 6 -3 9 12 8 35 -1 22
-6 40 -12 40 -5 0 -4 4 3 8 12 8 12 45 -1 58 -4 4 -7 12 -7 18 0 6 5 4 11 -4
8 -12 9 -10 7 10 -2 14 -7 28 -13 32 -6 5 -5 8 3 8 6 0 12 8 12 18 0 10 -6 24
-12 31 -7 8 -8 11 -2 8 7 -4 11 9 11 39 0 29 -3 41 -8 32 -5 -7 -9 -8 -9 -2 0
6 3 14 7 18 13 13 13 49 1 64 -10 12 -10 14 -1 8 9 -5 12 0 11 18 -1 15 -6 26
-10 26 -4 0 -8 5 -8 11 0 5 4 8 9 5 5 -4 8 15 6 41 -2 27 -4 48 -5 48 -1 0 -3
8 -5 18 -2 9 0 15 5 12 12 -7 7 99 -5 107 -7 5 -7 8 0 8 6 0 11 17 12 37 2 27
-1 33 -7 23 -6 -9 -10 -10 -10 -3 0 6 5 15 10 18 8 5 7 12 -2 23 -9 11 -10 14
-1 8 14 -8 13 50 -1 73 -6 9 -5 12 1 8 6 -4 10 11 10 39 0 29 -3 41 -8 32 -5
-7 -9 -8 -9 -2 0 6 3 14 7 18 13 13 13 49 1 64 -10 12 -10 14 -1 8 9 -5 12 0
11 18 -1 15 -6 26 -10 26 -4 0 -8 5 -8 11 0 5 4 8 9 5 5 -4 8 15 6 41 -2 27
-4 48 -5 48 -1 0 -3 8 -5 18 -2 9 0 15 5 12 12 -7 7 99 -5 107 -7 5 -7 8 0 8
6 0 11 17 12 37 2 27 -1 33 -7 23 -6 -9 -10 -10 -10 -3 0 6 5 15 10 18 8 5 7
12 -2 23 -9 11 -10 14 -1 8 14 -8 13 50 -1 73 -6 10 -5 12 2 7 8 -5 11 1 10
18 -1 15 -6 26 -10 26 -4 0 -8 5 -8 11 0 5 4 8 9 5 5 -4 8 15 6 41 -2 27 -4
48 -5 48 -1 0 -3 8 -5 18 -2 9 0 15 5 12 12 -7 7 99 -5 107 -6 5 -5 8 4 8 11
0 11 3 0 17 -9 11 -10 14 -2 9 9 -5 12 0 11 18 -1 15 -6 26 -10 26 -4 0 -8 5
-8 11 0 5 4 8 9 4 6 -3 9 12 8 35 -1 22 -6 40 -12 40 -5 0 -4 4 3 8 12 8 12
45 -1 58 -4 4 -7 12 -7 18 0 6 5 4 10 -4 8 -11 9 -9 8 13 -1 15 -7 27 -13 27
-6 0 -5 3 2 8 7 4 10 30 8 67 -1 33 -3 60 -5 60 -1 0 -3 8 -5 18 -2 9 1 15 6
11 10 -6 6 52 -4 63 -4 3 -7 11 -7 17 0 6 5 4 10 -4 8 -11 9 -9 8 13 -1 15 -7
27 -13 27 -5 0 -4 4 3 8 13 9 12 38 -2 61 -6 10 -5 12 2 7 16 -10 15 7 0 23
-7 8 -8 11 -2 8 7 -4 11 9 11 39 0 29 -3 41 -8 32 -5 -7 -9 -8 -9 -2 0 6 3 14
7 18 13 13 13 49 1 64 -10 12 -10 14 -1 8 9 -5 12 0 11 18 -1 15 -6 26 -10 26
-4 0 -8 5 -8 11 0 5 4 8 9 5 5 -4 8 15 6 41 -2 27 -4 48 -5 48 -1 0 -3 8 -5
18 -2 9 0 15 4 12 5 -2 8 20 7 50 0 30 -5 55 -11 55 -7 0 -6 3 0 8 6 4 11 26
11 50 l1 42 -4607 0 c-2534 0 -4610 -3 -4613 -7 -4 -3 -17 -7 -30 -9 -12 -1
-32 -5 -44 -8 -13 -3 -32 -8 -43 -10 -11 -3 -25 -8 -30 -11 -6 -3 -10 -1 -10
5 0 6 -10 4 -25 -6 -13 -8 -28 -13 -34 -10 -5 4 -16 -1 -24 -9 -9 -8 -18 -15
-22 -15 -5 0 -44 -26 -88 -60 -41 -31 -112 -100 -103 -100 5 0 -3 -11 -17 -24
-14 -13 -24 -26 -21 -28 2 -3 -5 -13 -16 -23 -11 -10 -20 -22 -20 -27 0 -5 -7
-16 -15 -24 -8 -8 -12 -21 -9 -29 4 -8 2 -15 -4 -15 -10 0 -22 -29 -26 -63 -2
-11 -9 -22 -16 -27 -7 -4 -10 -15 -7 -23 3 -9 -1 -21 -8 -27 -8 -7 -12 -16 -9
-21 3 -5 0 -9 -5 -9 -6 0 -11 -7 -11 -16 0 -8 -5 -25 -12 -37 -7 -12 -13 -30
-15 -40 -2 -10 -10 -29 -19 -42 -9 -14 -13 -25 -10 -25 4 0 -3 -18 -14 -40
-11 -22 -18 -40 -14 -40 4 0 1 -6 -5 -13 -6 -8 -8 -17 -4 -20 3 -4 1 -7 -6 -7
-8 0 -11 -8 -8 -19 3 -11 -1 -22 -8 -25 -11 -4 -45 -85 -45 -108 0 -5 -9 -24
-20 -44 -11 -19 -18 -39 -15 -45 4 -5 1 -9 -4 -9 -6 0 -11 -3 -10 -7 2 -15
-13 -53 -21 -53 -4 0 -10 -15 -14 -32 -8 -43 -29 -88 -39 -88 -5 0 -5 -5 -1
-11 6 -11 -24 -81 -39 -87 -4 -2 -5 -7 -2 -11 2 -5 -4 -26 -15 -48 -10 -22
-25 -58 -32 -81 -7 -23 -17 -42 -21 -42 -5 0 -6 -4 -2 -9 3 -5 1 -12 -5 -16
-6 -4 -8 -10 -5 -15 3 -5 1 -11 -5 -15 -6 -4 -8 -11 -5 -16 4 -5 1 -9 -4 -9
-6 0 -10 -3 -9 -7 1 -5 -4 -21 -10 -36 -7 -16 -12 -33 -12 -38 0 -5 -5 -9 -11
-9 -6 0 -8 -9 -4 -20 3 -11 2 -20 -4 -20 -11 0 -26 -38 -23 -57 2 -7 -1 -13
-7 -13 -5 0 -14 -22 -21 -50 -7 -27 -17 -50 -23 -50 -7 0 -13 -14 -13 -31 -1
-17 -7 -35 -14 -39 -7 -4 -9 -13 -6 -19 4 -6 2 -11 -3 -11 -6 0 -11 -9 -11
-19 0 -11 -5 -23 -10 -26 -6 -4 -8 -10 -5 -15 3 -5 0 -12 -6 -15 -5 -4 -8 -14
-5 -22 3 -8 2 -12 -3 -9 -5 3 -11 -1 -15 -9 -3 -8 -1 -15 5 -15 6 0 4 -7 -5
-15 -8 -8 -18 -25 -21 -38 -7 -25 -14 -42 -45 -109 -12 -26 -19 -52 -15 -58 3
-5 2 -10 -4 -10 -9 0 -23 -28 -27 -55 -4 -25 -17 -55 -23 -55 -4 0 -13 24 -20
53 -7 28 -21 81 -32 117 -10 36 -20 76 -23 90 -7 44 -37 164 -46 185 -5 11
-18 63 -30 115 -12 52 -25 105 -30 117 -5 12 -21 75 -35 140 -14 65 -29 125
-32 133 -3 8 -7 22 -9 30 -2 8 -15 58 -29 110 -23 88 -122 476 -130 510 -3 13
-67 276 -133 545 -43 173 -81 314 -87 325 -4 6 -9 26 -11 43 -7 49 -44 210
-55 232 -8 19 -32 109 -48 186 -4 19 -10 40 -14 46 -3 5 -9 23 -12 39 -9 51
-51 219 -140 569 -48 187 -95 374 -105 415 -9 41 -31 129 -48 195 -17 66 -41
163 -52 215 -11 52 -25 106 -30 120 -6 14 -28 99 -50 190 -42 179 -62 257 -85
335 -16 55 -44 165 -51 205 -3 14 -11 45 -19 70 -8 25 -23 81 -34 125 -11 44
-27 107 -36 140 -9 33 -18 71 -21 85 -3 13 -21 85 -40 160 -42 158 -48 182
-69 275 -20 86 -21 87 -28 105 -4 8 -18 62 -31 120 -27 116 -85 353 -115 470
-11 41 -24 95 -30 120 -5 25 -16 70 -22 100 -7 30 -16 60 -20 65 -4 6 -12 37
-19 70 -15 74 -37 163 -44 173 -3 5 -7 19 -10 33 -14 76 -47 210 -60 247 -8
23 -14 42 -12 42 2 0 -2 21 -10 48 -8 26 -17 63 -20 82 -3 19 -10 42 -14 50
-8 14 -46 166 -56 220 -3 14 -7 32 -10 40 -7 18 -63 231 -74 280 -4 19 -37
152 -73 295 -36 143 -68 271 -71 285 -2 14 -11 52 -20 85 -8 33 -31 123 -50
200 -20 77 -49 194 -67 260 -37 145 -69 272 -75 303 -3 13 -11 42 -18 65 -8
23 -24 85 -36 137 -12 52 -27 113 -35 135 -7 22 -16 54 -19 70 -6 34 -19 85
-111 450 -110 432 -185 732 -220 880 -19 77 -41 167 -50 200 -10 33 -18 67
-20 75 -8 41 -19 79 -32 120 -8 25 -23 81 -33 125 -16 68 -104 410 -114 440
-1 6 -6 24 -10 40 -9 36 -38 95 -47 95 -3 0 -14 15 -24 33 -32 59 -123 114
-235 142 l-100 25 -433 -1 -432 -2 -90 -26z m3692 -26014 c-1 -17 3 -38 10
-44 6 -7 9 -22 6 -33 -3 -11 0 -26 6 -33 6 -8 9 -23 6 -35 -2 -12 1 -24 6 -28
6 -3 9 -18 8 -32 -2 -15 1 -34 6 -42 15 -23 16 -50 3 -50 -7 0 -5 -5 4 -12 9
-7 15 -24 14 -38 -1 -14 1 -30 5 -35 7 -10 13 -37 23 -120 2 -16 9 -31 14 -33
7 -2 8 -12 2 -27 -6 -17 -5 -27 5 -35 8 -6 11 -23 8 -40 -2 -17 0 -30 5 -30 5
0 10 -10 10 -22 0 -13 6 -45 12 -73 14 -66 22 -113 24 -152 0 -18 6 -33 12
-33 6 0 9 -16 7 -37 -1 -24 3 -40 14 -48 11 -8 13 -14 4 -19 -8 -5 -8 -13 1
-29 6 -12 13 -35 14 -52 2 -16 5 -45 7 -63 2 -19 8 -37 13 -40 13 -10 13 -52
0 -52 -6 0 -5 -4 3 -9 8 -5 14 -24 14 -43 0 -19 7 -38 16 -45 14 -10 13 -12
-9 -17 -14 -3 -45 -4 -70 -3 -25 2 -53 -1 -62 -5 -9 -4 -19 -5 -21 -1 -6 10
-129 9 -145 0 -6 -4 -13 -4 -15 0 -6 10 -445 9 -454 0 -3 -4 -12 -2 -19 4 -10
8 -11 16 -3 30 5 10 7 19 3 19 -4 0 1 9 11 20 10 11 15 20 11 20 -4 0 -4 6 1
13 4 6 8 17 9 24 1 7 9 25 16 41 8 16 14 36 12 45 -1 9 2 17 7 17 5 0 9 9 9
19 0 11 5 23 10 26 6 4 8 11 5 16 -4 5 -3 15 2 22 4 6 8 19 10 27 1 8 6 16 11
18 6 2 8 12 5 22 -3 11 0 20 6 20 6 0 10 3 9 8 0 4 2 15 5 25 4 9 10 25 14 35
3 9 5 22 4 29 -1 6 3 14 9 18 5 3 10 15 10 26 0 10 4 19 9 19 5 0 7 9 4 20 -3
12 0 20 6 20 7 0 11 6 9 13 -1 6 4 22 11 35 11 21 16 36 25 78 1 7 7 18 14 26
6 8 9 18 5 21 -3 4 0 13 7 22 7 8 10 15 7 15 -4 0 4 26 17 58 36 85 39 96 37
110 -1 6 3 12 9 12 7 0 9 8 5 19 -3 11 0 21 9 24 9 4 12 14 9 26 -3 13 -1 21
6 21 7 0 10 3 7 8 -2 4 4 25 14 47 10 22 16 43 14 47 -3 5 0 8 5 8 6 0 11 9
11 19 0 11 5 23 10 26 6 4 8 11 5 16 -4 5 -3 15 2 22 4 6 8 14 9 17 1 3 5 20
9 38 4 17 11 32 16 32 5 0 8 3 8 8 -1 4 0 10 1 15 1 4 3 10 4 15 14 57 35 64
33 9z"/>
</g>
</svg>
